<mxfile host="app.diagrams.net" modified="2023-11-17T19:37:14.470Z" agent="Mozilla/5.0 (Windows NT 10.0; Win64; x64; rv:109.0) Gecko/20100101 Firefox/119.0" etag="W9xm1c-9yf4w1uu4AuVs" version="22.1.3" type="device">
  <diagram name="Page-1" id="7e0a89b8-554c-2b80-1dc8-d5c74ca68de4">
    <mxGraphModel dx="1484" dy="853" grid="1" gridSize="10" guides="1" tooltips="1" connect="1" arrows="1" fold="1" page="1" pageScale="1" pageWidth="1100" pageHeight="850" background="none" math="0" shadow="0">
      <root>
        <mxCell id="0" />
        <mxCell id="1" parent="0" />
        <mxCell id="nGZdszlBQ4QJY1PqZpHb-26" style="edgeStyle=orthogonalEdgeStyle;rounded=0;orthogonalLoop=1;jettySize=auto;html=1;exitX=1;exitY=0.5;exitDx=0;exitDy=0;exitPerimeter=0;entryX=1;entryY=0.5;entryDx=0;entryDy=0;entryPerimeter=0;endArrow=none;endFill=0;" parent="1" source="nGZdszlBQ4QJY1PqZpHb-2" edge="1">
          <mxGeometry relative="1" as="geometry">
            <mxPoint x="220" y="284.0000000000001" as="targetPoint" />
            <Array as="points">
              <mxPoint x="170" y="284" />
              <mxPoint x="170" y="284" />
            </Array>
          </mxGeometry>
        </mxCell>
        <mxCell id="nGZdszlBQ4QJY1PqZpHb-2" value="" style="verticalLabelPosition=bottom;shadow=0;dashed=0;align=center;fillColor=strokeColor;html=1;verticalAlign=top;strokeWidth=1;shape=mxgraph.electrical.miscellaneous.monocell_battery;rotation=-90;" parent="1" vertex="1">
          <mxGeometry x="60" y="304" width="100" height="60" as="geometry" />
        </mxCell>
        <mxCell id="nGZdszlBQ4QJY1PqZpHb-3" value="LiPo Battery" style="text;html=1;strokeColor=none;fillColor=none;align=center;verticalAlign=middle;whiteSpace=wrap;rounded=0;" parent="1" vertex="1">
          <mxGeometry x="20" y="339" width="60" height="30" as="geometry" />
        </mxCell>
        <mxCell id="nGZdszlBQ4QJY1PqZpHb-4" value="&lt;div&gt;NMOS1&lt;/div&gt;" style="verticalLabelPosition=bottom;shadow=0;dashed=0;align=center;html=1;verticalAlign=top;shape=mxgraph.electrical.transistors.nmos;pointerEvents=1;" parent="1" vertex="1">
          <mxGeometry x="240" y="234" width="60" height="100" as="geometry" />
        </mxCell>
        <mxCell id="nGZdszlBQ4QJY1PqZpHb-6" style="edgeStyle=orthogonalEdgeStyle;rounded=0;orthogonalLoop=1;jettySize=auto;html=1;exitX=1;exitY=0.5;exitDx=0;exitDy=0;exitPerimeter=0;entryX=0.039;entryY=0.493;entryDx=0;entryDy=0;entryPerimeter=0;strokeColor=default;startArrow=none;startFill=0;endArrow=none;endFill=0;" parent="1" target="nGZdszlBQ4QJY1PqZpHb-4" edge="1">
          <mxGeometry relative="1" as="geometry">
            <mxPoint x="220" y="284.0000000000001" as="sourcePoint" />
          </mxGeometry>
        </mxCell>
        <mxCell id="nGZdszlBQ4QJY1PqZpHb-7" value="" style="pointerEvents=1;verticalLabelPosition=bottom;shadow=0;dashed=0;align=center;html=1;verticalAlign=top;shape=mxgraph.electrical.signal_sources.signal_ground;" parent="1" vertex="1">
          <mxGeometry x="290" y="384" width="20" height="15" as="geometry" />
        </mxCell>
        <mxCell id="nGZdszlBQ4QJY1PqZpHb-11" style="edgeStyle=orthogonalEdgeStyle;rounded=0;orthogonalLoop=1;jettySize=auto;html=1;entryX=1;entryY=0;entryDx=0;entryDy=0;entryPerimeter=0;endArrow=none;endFill=0;" parent="1" target="nGZdszlBQ4QJY1PqZpHb-4" edge="1">
          <mxGeometry relative="1" as="geometry">
            <mxPoint x="300" y="219" as="sourcePoint" />
          </mxGeometry>
        </mxCell>
        <mxCell id="nGZdszlBQ4QJY1PqZpHb-20" value="" style="endArrow=none;html=1;rounded=0;" parent="1" edge="1">
          <mxGeometry width="50" height="50" relative="1" as="geometry">
            <mxPoint x="290" y="199" as="sourcePoint" />
            <mxPoint x="310" y="199" as="targetPoint" />
          </mxGeometry>
        </mxCell>
        <mxCell id="nGZdszlBQ4QJY1PqZpHb-21" style="edgeStyle=orthogonalEdgeStyle;rounded=0;orthogonalLoop=1;jettySize=auto;html=1;endArrow=none;endFill=0;" parent="1" source="nGZdszlBQ4QJY1PqZpHb-19" edge="1">
          <mxGeometry relative="1" as="geometry">
            <mxPoint x="300" y="204" as="targetPoint" />
          </mxGeometry>
        </mxCell>
        <mxCell id="nGZdszlBQ4QJY1PqZpHb-19" value="" style="triangle;whiteSpace=wrap;html=1;rotation=90;" parent="1" vertex="1">
          <mxGeometry x="287.5" y="174" width="25" height="25" as="geometry" />
        </mxCell>
        <mxCell id="nGZdszlBQ4QJY1PqZpHb-22" value="D1" style="text;html=1;strokeColor=none;fillColor=none;align=center;verticalAlign=middle;whiteSpace=wrap;rounded=0;" parent="1" vertex="1">
          <mxGeometry x="312.5" y="174" width="20" height="17.5" as="geometry" />
        </mxCell>
        <mxCell id="l2MW9axmsA3kfvPfDr8_-97" style="edgeStyle=orthogonalEdgeStyle;rounded=0;orthogonalLoop=1;jettySize=auto;html=1;exitX=0.5;exitY=0;exitDx=0;exitDy=0;exitPerimeter=0;endArrow=none;endFill=0;entryX=0;entryY=0.5;entryDx=0;entryDy=0;entryPerimeter=0;" edge="1" parent="1" source="nGZdszlBQ4QJY1PqZpHb-23" target="l2MW9axmsA3kfvPfDr8_-94">
          <mxGeometry relative="1" as="geometry">
            <mxPoint x="220.03351955307267" y="370.00000000000006" as="targetPoint" />
          </mxGeometry>
        </mxCell>
        <mxCell id="nGZdszlBQ4QJY1PqZpHb-23" value="" style="pointerEvents=1;verticalLabelPosition=bottom;shadow=0;dashed=0;align=center;html=1;verticalAlign=top;shape=mxgraph.electrical.signal_sources.signal_ground;" parent="1" vertex="1">
          <mxGeometry x="210" y="384" width="20" height="15" as="geometry" />
        </mxCell>
        <mxCell id="nGZdszlBQ4QJY1PqZpHb-24" value="" style="endArrow=none;html=1;rounded=0;" parent="1" edge="1">
          <mxGeometry width="50" height="50" relative="1" as="geometry">
            <mxPoint x="285" y="120" as="sourcePoint" />
            <mxPoint x="315" y="120" as="targetPoint" />
          </mxGeometry>
        </mxCell>
        <mxCell id="nGZdszlBQ4QJY1PqZpHb-25" value="12V" style="edgeLabel;html=1;align=center;verticalAlign=middle;resizable=0;points=[];" parent="nGZdszlBQ4QJY1PqZpHb-24" vertex="1" connectable="0">
          <mxGeometry x="-0.1556" y="3" relative="1" as="geometry">
            <mxPoint x="2" y="-7" as="offset" />
          </mxGeometry>
        </mxCell>
        <mxCell id="nGZdszlBQ4QJY1PqZpHb-27" value="" style="pointerEvents=1;verticalLabelPosition=bottom;shadow=0;dashed=0;align=center;html=1;verticalAlign=top;shape=mxgraph.electrical.signal_sources.signal_ground;" parent="1" vertex="1">
          <mxGeometry x="100" y="384" width="20" height="15" as="geometry" />
        </mxCell>
        <mxCell id="nGZdszlBQ4QJY1PqZpHb-28" style="edgeStyle=orthogonalEdgeStyle;rounded=0;orthogonalLoop=1;jettySize=auto;html=1;exitX=1;exitY=1;exitDx=0;exitDy=0;exitPerimeter=0;entryX=0.5;entryY=0;entryDx=0;entryDy=0;entryPerimeter=0;endArrow=none;endFill=0;" parent="1" source="nGZdszlBQ4QJY1PqZpHb-4" target="nGZdszlBQ4QJY1PqZpHb-7" edge="1">
          <mxGeometry relative="1" as="geometry" />
        </mxCell>
        <mxCell id="nGZdszlBQ4QJY1PqZpHb-31" value="" style="endArrow=none;html=1;rounded=0;" parent="1" edge="1">
          <mxGeometry width="50" height="50" relative="1" as="geometry">
            <mxPoint x="222.5" y="532.21" as="sourcePoint" />
            <mxPoint x="242.5" y="532.21" as="targetPoint" />
          </mxGeometry>
        </mxCell>
        <mxCell id="nGZdszlBQ4QJY1PqZpHb-32" value="" style="triangle;whiteSpace=wrap;html=1;rotation=-90;" parent="1" vertex="1">
          <mxGeometry x="220" y="532.21" width="25" height="25" as="geometry" />
        </mxCell>
        <mxCell id="nGZdszlBQ4QJY1PqZpHb-33" value="D2" style="text;html=1;strokeColor=none;fillColor=none;align=center;verticalAlign=middle;whiteSpace=wrap;rounded=0;" parent="1" vertex="1">
          <mxGeometry x="245" y="536.21" width="12.5" height="17.5" as="geometry" />
        </mxCell>
        <mxCell id="nGZdszlBQ4QJY1PqZpHb-35" style="edgeStyle=orthogonalEdgeStyle;rounded=0;orthogonalLoop=1;jettySize=auto;html=1;exitX=0.5;exitY=0;exitDx=0;exitDy=0;exitPerimeter=0;entryX=0;entryY=0.5;entryDx=0;entryDy=0;endArrow=none;endFill=0;" parent="1" source="nGZdszlBQ4QJY1PqZpHb-34" target="nGZdszlBQ4QJY1PqZpHb-32" edge="1">
          <mxGeometry relative="1" as="geometry" />
        </mxCell>
        <mxCell id="nGZdszlBQ4QJY1PqZpHb-34" value="" style="pointerEvents=1;verticalLabelPosition=bottom;shadow=0;dashed=0;align=center;html=1;verticalAlign=top;shape=mxgraph.electrical.signal_sources.signal_ground;" parent="1" vertex="1">
          <mxGeometry x="222.5" y="602.21" width="20" height="15" as="geometry" />
        </mxCell>
        <mxCell id="nGZdszlBQ4QJY1PqZpHb-37" style="edgeStyle=orthogonalEdgeStyle;rounded=0;orthogonalLoop=1;jettySize=auto;html=1;exitX=1;exitY=0.5;exitDx=0;exitDy=0;exitPerimeter=0;endArrow=none;endFill=0;" parent="1" edge="1">
          <mxGeometry relative="1" as="geometry">
            <mxPoint x="162.46153846153845" y="284" as="targetPoint" />
            <mxPoint x="162.5" y="424" as="sourcePoint" />
          </mxGeometry>
        </mxCell>
        <mxCell id="nGZdszlBQ4QJY1PqZpHb-39" value="" style="endArrow=none;html=1;rounded=0;exitX=1;exitY=0.5;exitDx=0;exitDy=0;exitPerimeter=0;" parent="1" edge="1">
          <mxGeometry width="50" height="50" relative="1" as="geometry">
            <mxPoint x="162.5" y="424" as="sourcePoint" />
            <mxPoint x="280" y="424" as="targetPoint" />
          </mxGeometry>
        </mxCell>
        <mxCell id="nGZdszlBQ4QJY1PqZpHb-42" value="" style="pointerEvents=1;verticalLabelPosition=bottom;shadow=0;dashed=0;align=center;html=1;verticalAlign=top;shape=mxgraph.electrical.signal_sources.signal_ground;" parent="1" vertex="1">
          <mxGeometry x="300.99" y="604" width="20" height="15" as="geometry" />
        </mxCell>
        <mxCell id="nGZdszlBQ4QJY1PqZpHb-43" style="edgeStyle=orthogonalEdgeStyle;rounded=0;orthogonalLoop=1;jettySize=auto;html=1;exitX=0.5;exitY=0;exitDx=0;exitDy=0;exitPerimeter=0;entryX=0;entryY=0.5;entryDx=0;entryDy=0;entryPerimeter=0;endArrow=none;endFill=0;" parent="1" source="nGZdszlBQ4QJY1PqZpHb-42" edge="1">
          <mxGeometry relative="1" as="geometry">
            <mxPoint x="310.99" y="499.93" as="targetPoint" />
          </mxGeometry>
        </mxCell>
        <mxCell id="l2MW9axmsA3kfvPfDr8_-8" style="edgeStyle=orthogonalEdgeStyle;rounded=0;orthogonalLoop=1;jettySize=auto;html=1;exitX=0;exitY=0.5;exitDx=0;exitDy=0;exitPerimeter=0;entryX=0;entryY=0.5;entryDx=0;entryDy=0;endArrow=none;endFill=0;" edge="1" parent="1" source="l2MW9axmsA3kfvPfDr8_-4" target="l2MW9axmsA3kfvPfDr8_-5">
          <mxGeometry relative="1" as="geometry" />
        </mxCell>
        <mxCell id="l2MW9axmsA3kfvPfDr8_-4" value="" style="pointerEvents=1;fillColor=strokeColor;verticalLabelPosition=bottom;shadow=0;dashed=0;align=center;html=1;verticalAlign=top;shape=mxgraph.electrical.diodes.zener_diode_1;rotation=-90;" vertex="1" parent="1">
          <mxGeometry x="388.75" y="528" width="42.5" height="27.5" as="geometry" />
        </mxCell>
        <mxCell id="l2MW9axmsA3kfvPfDr8_-5" value="" style="triangle;whiteSpace=wrap;html=1;rotation=90;" vertex="1" parent="1">
          <mxGeometry x="397.5" y="569" width="25" height="25" as="geometry" />
        </mxCell>
        <mxCell id="l2MW9axmsA3kfvPfDr8_-9" style="edgeStyle=orthogonalEdgeStyle;rounded=0;orthogonalLoop=1;jettySize=auto;html=1;exitX=0.5;exitY=0;exitDx=0;exitDy=0;exitPerimeter=0;entryX=1;entryY=0.5;entryDx=0;entryDy=0;endArrow=none;endFill=0;" edge="1" parent="1" source="l2MW9axmsA3kfvPfDr8_-6" target="l2MW9axmsA3kfvPfDr8_-5">
          <mxGeometry relative="1" as="geometry" />
        </mxCell>
        <mxCell id="l2MW9axmsA3kfvPfDr8_-6" value="" style="pointerEvents=1;verticalLabelPosition=bottom;shadow=0;dashed=0;align=center;html=1;verticalAlign=top;shape=mxgraph.electrical.signal_sources.signal_ground;" vertex="1" parent="1">
          <mxGeometry x="400" y="604" width="20" height="15" as="geometry" />
        </mxCell>
        <mxCell id="l2MW9axmsA3kfvPfDr8_-10" style="edgeStyle=orthogonalEdgeStyle;rounded=0;orthogonalLoop=1;jettySize=auto;html=1;exitX=0.7;exitY=1;exitDx=0;exitDy=0;exitPerimeter=0;entryX=1;entryY=0.5;entryDx=0;entryDy=0;entryPerimeter=0;endArrow=none;endFill=0;" edge="1" parent="1">
          <mxGeometry relative="1" as="geometry">
            <mxPoint x="345" y="423.5" as="sourcePoint" />
            <mxPoint x="410" y="424" as="targetPoint" />
            <Array as="points">
              <mxPoint x="372" y="424" />
              <mxPoint x="410" y="424" />
            </Array>
          </mxGeometry>
        </mxCell>
        <mxCell id="l2MW9axmsA3kfvPfDr8_-11" value="" style="endArrow=none;html=1;rounded=0;" edge="1" parent="1">
          <mxGeometry width="50" height="50" relative="1" as="geometry">
            <mxPoint x="400" y="594" as="sourcePoint" />
            <mxPoint x="420" y="594" as="targetPoint" />
          </mxGeometry>
        </mxCell>
        <mxCell id="l2MW9axmsA3kfvPfDr8_-13" value="D3" style="text;html=1;strokeColor=none;fillColor=none;align=center;verticalAlign=middle;whiteSpace=wrap;rounded=0;" vertex="1" parent="1">
          <mxGeometry x="422.5" y="572.75" width="12.5" height="17.5" as="geometry" />
        </mxCell>
        <mxCell id="l2MW9axmsA3kfvPfDr8_-14" value="DZ1" style="text;html=1;strokeColor=none;fillColor=none;align=center;verticalAlign=middle;whiteSpace=wrap;rounded=0;" vertex="1" parent="1">
          <mxGeometry x="431" y="539.5" width="18.75" height="16" as="geometry" />
        </mxCell>
        <mxCell id="l2MW9axmsA3kfvPfDr8_-16" style="edgeStyle=orthogonalEdgeStyle;rounded=0;orthogonalLoop=1;jettySize=auto;html=1;exitX=1;exitY=0;exitDx=0;exitDy=0;exitPerimeter=0;endArrow=none;endFill=0;" edge="1" parent="1" source="l2MW9axmsA3kfvPfDr8_-15">
          <mxGeometry relative="1" as="geometry">
            <mxPoint x="346.9090909090909" y="423.1363636363635" as="targetPoint" />
          </mxGeometry>
        </mxCell>
        <mxCell id="l2MW9axmsA3kfvPfDr8_-15" value="" style="verticalLabelPosition=bottom;shadow=0;dashed=0;align=center;html=1;verticalAlign=top;shape=mxgraph.electrical.transistors.pmos;pointerEvents=1;flipH=1;rotation=90;" vertex="1" parent="1">
          <mxGeometry x="291" y="405" width="40" height="78" as="geometry" />
        </mxCell>
        <mxCell id="l2MW9axmsA3kfvPfDr8_-23" style="edgeStyle=orthogonalEdgeStyle;rounded=0;orthogonalLoop=1;jettySize=auto;html=1;exitX=1;exitY=0;exitDx=0;exitDy=0;exitPerimeter=0;endArrow=none;endFill=0;" edge="1" parent="1" source="l2MW9axmsA3kfvPfDr8_-17">
          <mxGeometry relative="1" as="geometry">
            <mxPoint x="489.8813559322034" y="424" as="targetPoint" />
          </mxGeometry>
        </mxCell>
        <mxCell id="l2MW9axmsA3kfvPfDr8_-17" value="" style="verticalLabelPosition=bottom;shadow=0;dashed=0;align=center;html=1;verticalAlign=top;shape=mxgraph.electrical.transistors.pnp_transistor_5;" vertex="1" parent="1">
          <mxGeometry x="460" y="495.43" width="30" height="60" as="geometry" />
        </mxCell>
        <mxCell id="l2MW9axmsA3kfvPfDr8_-30" style="edgeStyle=orthogonalEdgeStyle;rounded=0;orthogonalLoop=1;jettySize=auto;html=1;exitX=0;exitY=0.5;exitDx=0;exitDy=0;exitPerimeter=0;endArrow=none;endFill=0;" edge="1" parent="1" source="l2MW9axmsA3kfvPfDr8_-18">
          <mxGeometry relative="1" as="geometry">
            <mxPoint x="539.9024390243903" y="554" as="targetPoint" />
          </mxGeometry>
        </mxCell>
        <mxCell id="l2MW9axmsA3kfvPfDr8_-91" style="edgeStyle=orthogonalEdgeStyle;rounded=0;orthogonalLoop=1;jettySize=auto;html=1;exitX=1;exitY=1;exitDx=0;exitDy=0;exitPerimeter=0;endArrow=none;endFill=0;" edge="1" parent="1" source="l2MW9axmsA3kfvPfDr8_-18">
          <mxGeometry relative="1" as="geometry">
            <mxPoint x="750" y="425" as="targetPoint" />
            <Array as="points">
              <mxPoint x="760" y="425" />
            </Array>
          </mxGeometry>
        </mxCell>
        <mxCell id="l2MW9axmsA3kfvPfDr8_-18" value="" style="verticalLabelPosition=bottom;shadow=0;dashed=0;align=center;html=1;verticalAlign=top;shape=mxgraph.electrical.transistors.pmos;pointerEvents=1;flipH=1;rotation=90;flipV=1;" vertex="1" parent="1">
          <mxGeometry x="520" y="406" width="40" height="78" as="geometry" />
        </mxCell>
        <mxCell id="l2MW9axmsA3kfvPfDr8_-50" style="edgeStyle=orthogonalEdgeStyle;rounded=0;orthogonalLoop=1;jettySize=auto;html=1;exitX=1;exitY=0;exitDx=0;exitDy=0;exitPerimeter=0;endArrow=none;endFill=0;" edge="1" parent="1" source="l2MW9axmsA3kfvPfDr8_-18">
          <mxGeometry relative="1" as="geometry">
            <mxPoint x="580" y="460" as="targetPoint" />
            <Array as="points">
              <mxPoint x="509" y="450" />
              <mxPoint x="508" y="450" />
              <mxPoint x="508" y="460" />
            </Array>
          </mxGeometry>
        </mxCell>
        <mxCell id="l2MW9axmsA3kfvPfDr8_-19" value="&lt;div&gt;R6&lt;/div&gt;" style="pointerEvents=1;verticalLabelPosition=bottom;shadow=0;dashed=0;align=center;html=1;verticalAlign=top;shape=mxgraph.electrical.resistors.resistor_2;rotation=-90;" vertex="1" parent="1">
          <mxGeometry x="520" y="569" width="40" height="11.43" as="geometry" />
        </mxCell>
        <mxCell id="l2MW9axmsA3kfvPfDr8_-22" style="edgeStyle=orthogonalEdgeStyle;rounded=0;orthogonalLoop=1;jettySize=auto;html=1;exitX=1;exitY=0;exitDx=0;exitDy=0;exitPerimeter=0;entryX=1;entryY=0.5;entryDx=0;entryDy=0;entryPerimeter=0;endArrow=none;endFill=0;" edge="1" parent="1" source="l2MW9axmsA3kfvPfDr8_-18">
          <mxGeometry relative="1" as="geometry">
            <mxPoint x="410" y="424" as="targetPoint" />
            <Array as="points">
              <mxPoint x="509" y="424" />
            </Array>
          </mxGeometry>
        </mxCell>
        <mxCell id="l2MW9axmsA3kfvPfDr8_-24" style="edgeStyle=orthogonalEdgeStyle;rounded=0;orthogonalLoop=1;jettySize=auto;html=1;exitX=0;exitY=0.5;exitDx=0;exitDy=0;exitPerimeter=0;entryX=0.944;entryY=0.508;entryDx=0;entryDy=0;entryPerimeter=0;endArrow=none;endFill=0;" edge="1" parent="1" source="l2MW9axmsA3kfvPfDr8_-17" target="l2MW9axmsA3kfvPfDr8_-4">
          <mxGeometry relative="1" as="geometry">
            <Array as="points">
              <mxPoint x="440" y="525" />
              <mxPoint x="410" y="525" />
            </Array>
          </mxGeometry>
        </mxCell>
        <mxCell id="l2MW9axmsA3kfvPfDr8_-27" style="edgeStyle=orthogonalEdgeStyle;rounded=0;orthogonalLoop=1;jettySize=auto;html=1;exitX=1;exitY=0.5;exitDx=0;exitDy=0;exitPerimeter=0;endArrow=none;endFill=0;" edge="1" parent="1" source="l2MW9axmsA3kfvPfDr8_-26">
          <mxGeometry relative="1" as="geometry">
            <mxPoint x="409.9411764705883" y="424" as="targetPoint" />
          </mxGeometry>
        </mxCell>
        <mxCell id="l2MW9axmsA3kfvPfDr8_-26" value="R5" style="pointerEvents=1;verticalLabelPosition=bottom;shadow=0;dashed=0;align=center;html=1;verticalAlign=top;shape=mxgraph.electrical.resistors.resistor_2;rotation=-90;" vertex="1" parent="1">
          <mxGeometry x="390.005" y="476.425" width="40" height="11.43" as="geometry" />
        </mxCell>
        <mxCell id="l2MW9axmsA3kfvPfDr8_-28" style="edgeStyle=orthogonalEdgeStyle;rounded=0;orthogonalLoop=1;jettySize=auto;html=1;exitX=0;exitY=0.5;exitDx=0;exitDy=0;exitPerimeter=0;entryX=1;entryY=0.5;entryDx=0;entryDy=0;entryPerimeter=0;endArrow=none;endFill=0;" edge="1" parent="1" source="l2MW9axmsA3kfvPfDr8_-26" target="l2MW9axmsA3kfvPfDr8_-4">
          <mxGeometry relative="1" as="geometry" />
        </mxCell>
        <mxCell id="l2MW9axmsA3kfvPfDr8_-29" style="edgeStyle=orthogonalEdgeStyle;rounded=0;orthogonalLoop=1;jettySize=auto;html=1;exitX=1;exitY=1;exitDx=0;exitDy=0;exitPerimeter=0;entryX=1;entryY=0.5;entryDx=0;entryDy=0;entryPerimeter=0;endArrow=none;endFill=0;" edge="1" parent="1" source="l2MW9axmsA3kfvPfDr8_-17" target="l2MW9axmsA3kfvPfDr8_-19">
          <mxGeometry relative="1" as="geometry">
            <Array as="points">
              <mxPoint x="540" y="549" />
            </Array>
          </mxGeometry>
        </mxCell>
        <mxCell id="l2MW9axmsA3kfvPfDr8_-31" value="R4" style="pointerEvents=1;verticalLabelPosition=bottom;shadow=0;dashed=0;align=center;html=1;verticalAlign=top;shape=mxgraph.electrical.resistors.resistor_2;rotation=-90;" vertex="1" parent="1">
          <mxGeometry x="290.995" y="476.425" width="40" height="11.43" as="geometry" />
        </mxCell>
        <mxCell id="l2MW9axmsA3kfvPfDr8_-34" style="edgeStyle=orthogonalEdgeStyle;rounded=0;orthogonalLoop=1;jettySize=auto;html=1;exitX=0;exitY=0.5;exitDx=0;exitDy=0;exitPerimeter=0;entryX=1;entryY=0.5;entryDx=0;entryDy=0;endArrow=none;endFill=0;" edge="1" parent="1" source="l2MW9axmsA3kfvPfDr8_-32" target="nGZdszlBQ4QJY1PqZpHb-32">
          <mxGeometry relative="1" as="geometry" />
        </mxCell>
        <mxCell id="l2MW9axmsA3kfvPfDr8_-35" style="edgeStyle=orthogonalEdgeStyle;rounded=0;orthogonalLoop=1;jettySize=auto;html=1;exitX=1;exitY=0.5;exitDx=0;exitDy=0;exitPerimeter=0;endArrow=none;endFill=0;" edge="1" parent="1" source="l2MW9axmsA3kfvPfDr8_-32">
          <mxGeometry relative="1" as="geometry">
            <mxPoint x="232.29411764705878" y="424" as="targetPoint" />
          </mxGeometry>
        </mxCell>
        <mxCell id="l2MW9axmsA3kfvPfDr8_-32" value="R3" style="pointerEvents=1;verticalLabelPosition=bottom;shadow=0;dashed=0;align=center;html=1;verticalAlign=top;shape=mxgraph.electrical.resistors.resistor_2;rotation=-90;" vertex="1" parent="1">
          <mxGeometry x="212.495" y="476.425" width="40" height="11.43" as="geometry" />
        </mxCell>
        <mxCell id="l2MW9axmsA3kfvPfDr8_-37" style="edgeStyle=orthogonalEdgeStyle;rounded=0;orthogonalLoop=1;jettySize=auto;html=1;exitX=0;exitY=0.5;exitDx=0;exitDy=0;exitPerimeter=0;entryX=0;entryY=0.5;entryDx=0;entryDy=0;endArrow=none;endFill=0;" edge="1" parent="1" source="l2MW9axmsA3kfvPfDr8_-36" target="nGZdszlBQ4QJY1PqZpHb-19">
          <mxGeometry relative="1" as="geometry" />
        </mxCell>
        <mxCell id="l2MW9axmsA3kfvPfDr8_-36" value="R2" style="pointerEvents=1;verticalLabelPosition=bottom;shadow=0;dashed=0;align=center;html=1;verticalAlign=top;shape=mxgraph.electrical.resistors.resistor_2;rotation=-90;" vertex="1" parent="1">
          <mxGeometry x="280.005" y="134.005" width="40" height="11.43" as="geometry" />
        </mxCell>
        <mxCell id="l2MW9axmsA3kfvPfDr8_-38" value="" style="endArrow=none;html=1;rounded=0;" edge="1" parent="1">
          <mxGeometry width="50" height="50" relative="1" as="geometry">
            <mxPoint x="525" y="594" as="sourcePoint" />
            <mxPoint x="555" y="594" as="targetPoint" />
          </mxGeometry>
        </mxCell>
        <mxCell id="l2MW9axmsA3kfvPfDr8_-39" value="-12V" style="edgeLabel;html=1;align=center;verticalAlign=middle;resizable=0;points=[];" vertex="1" connectable="0" parent="l2MW9axmsA3kfvPfDr8_-38">
          <mxGeometry x="-0.1556" y="3" relative="1" as="geometry">
            <mxPoint x="2" y="13" as="offset" />
          </mxGeometry>
        </mxCell>
        <mxCell id="l2MW9axmsA3kfvPfDr8_-41" value="PMOS2" style="text;html=1;strokeColor=none;fillColor=none;align=center;verticalAlign=middle;whiteSpace=wrap;rounded=0;" vertex="1" parent="1">
          <mxGeometry x="570" y="435.25" width="20" height="17.5" as="geometry" />
        </mxCell>
        <mxCell id="l2MW9axmsA3kfvPfDr8_-43" value="PMOS1" style="text;html=1;strokeColor=none;fillColor=none;align=center;verticalAlign=middle;whiteSpace=wrap;rounded=0;" vertex="1" parent="1">
          <mxGeometry x="342.5" y="445.25" width="20" height="17.5" as="geometry" />
        </mxCell>
        <mxCell id="l2MW9axmsA3kfvPfDr8_-46" style="edgeStyle=orthogonalEdgeStyle;rounded=0;orthogonalLoop=1;jettySize=auto;html=1;exitX=1;exitY=1;exitDx=0;exitDy=0;exitPerimeter=0;endArrow=none;endFill=0;" edge="1" parent="1" source="l2MW9axmsA3kfvPfDr8_-44">
          <mxGeometry relative="1" as="geometry">
            <mxPoint x="540" y="550" as="targetPoint" />
            <Array as="points">
              <mxPoint x="580" y="550" />
            </Array>
          </mxGeometry>
        </mxCell>
        <mxCell id="l2MW9axmsA3kfvPfDr8_-44" value="" style="verticalLabelPosition=bottom;shadow=0;dashed=0;align=center;html=1;verticalAlign=top;shape=mxgraph.electrical.transistors.pmos;pointerEvents=1;flipH=0;rotation=-180;flipV=1;" vertex="1" parent="1">
          <mxGeometry x="580" y="462.75" width="40" height="78" as="geometry" />
        </mxCell>
        <mxCell id="l2MW9axmsA3kfvPfDr8_-45" value="R7" style="pointerEvents=1;verticalLabelPosition=bottom;shadow=0;dashed=0;align=center;html=1;verticalAlign=top;shape=mxgraph.electrical.resistors.resistor_2;rotation=-90;" vertex="1" parent="1">
          <mxGeometry x="599.995" y="476.42499999999995" width="40" height="11.43" as="geometry" />
        </mxCell>
        <mxCell id="l2MW9axmsA3kfvPfDr8_-47" style="edgeStyle=orthogonalEdgeStyle;rounded=0;orthogonalLoop=1;jettySize=auto;html=1;exitX=1;exitY=0;exitDx=0;exitDy=0;exitPerimeter=0;entryX=1;entryY=0.5;entryDx=0;entryDy=0;entryPerimeter=0;endArrow=none;endFill=0;" edge="1" parent="1" source="l2MW9axmsA3kfvPfDr8_-44" target="l2MW9axmsA3kfvPfDr8_-45">
          <mxGeometry relative="1" as="geometry">
            <Array as="points">
              <mxPoint x="580" y="460" />
              <mxPoint x="620" y="460" />
            </Array>
          </mxGeometry>
        </mxCell>
        <mxCell id="l2MW9axmsA3kfvPfDr8_-51" value="" style="ellipse;whiteSpace=wrap;html=1;aspect=fixed;fillColor=#000000;" vertex="1" parent="1">
          <mxGeometry x="408" y="522" width="5" height="5" as="geometry" />
        </mxCell>
        <mxCell id="l2MW9axmsA3kfvPfDr8_-53" value="" style="ellipse;whiteSpace=wrap;html=1;aspect=fixed;fillColor=#000000;" vertex="1" parent="1">
          <mxGeometry x="487" y="422" width="5" height="5" as="geometry" />
        </mxCell>
        <mxCell id="l2MW9axmsA3kfvPfDr8_-55" value="" style="ellipse;whiteSpace=wrap;html=1;aspect=fixed;fillColor=#000000;" vertex="1" parent="1">
          <mxGeometry x="506" y="422" width="5" height="5" as="geometry" />
        </mxCell>
        <mxCell id="l2MW9axmsA3kfvPfDr8_-56" value="" style="ellipse;whiteSpace=wrap;html=1;aspect=fixed;fillColor=#000000;" vertex="1" parent="1">
          <mxGeometry x="538" y="547" width="5" height="5" as="geometry" />
        </mxCell>
        <mxCell id="l2MW9axmsA3kfvPfDr8_-57" value="" style="ellipse;whiteSpace=wrap;html=1;aspect=fixed;fillColor=#000000;" vertex="1" parent="1">
          <mxGeometry x="407" y="421" width="5" height="5" as="geometry" />
        </mxCell>
        <mxCell id="l2MW9axmsA3kfvPfDr8_-58" value="" style="ellipse;whiteSpace=wrap;html=1;aspect=fixed;fillColor=#000000;" vertex="1" parent="1">
          <mxGeometry x="217" y="282" width="5" height="5" as="geometry" />
        </mxCell>
        <mxCell id="l2MW9axmsA3kfvPfDr8_-59" value="" style="ellipse;whiteSpace=wrap;html=1;aspect=fixed;fillColor=#000000;" vertex="1" parent="1">
          <mxGeometry x="160" y="282" width="5" height="5" as="geometry" />
        </mxCell>
        <mxCell id="l2MW9axmsA3kfvPfDr8_-60" value="" style="ellipse;whiteSpace=wrap;html=1;aspect=fixed;fillColor=#000000;" vertex="1" parent="1">
          <mxGeometry x="577.5" y="457" width="5" height="5" as="geometry" />
        </mxCell>
        <mxCell id="l2MW9axmsA3kfvPfDr8_-61" value="PMOS3" style="text;html=1;strokeColor=none;fillColor=none;align=center;verticalAlign=middle;whiteSpace=wrap;rounded=0;" vertex="1" parent="1">
          <mxGeometry x="590" y="514.71" width="20" height="17.5" as="geometry" />
        </mxCell>
        <mxCell id="l2MW9axmsA3kfvPfDr8_-62" value="PNP1" style="text;html=1;strokeColor=none;fillColor=none;align=center;verticalAlign=middle;whiteSpace=wrap;rounded=0;" vertex="1" parent="1">
          <mxGeometry x="449.75" y="497.21" width="20" height="17.5" as="geometry" />
        </mxCell>
        <mxCell id="l2MW9axmsA3kfvPfDr8_-63" value="" style="verticalLabelPosition=bottom;shadow=0;dashed=0;align=center;html=1;verticalAlign=top;shape=mxgraph.electrical.transistors.npn_transistor_5;flipH=1;" vertex="1" parent="1">
          <mxGeometry x="614" y="502" width="40" height="45" as="geometry" />
        </mxCell>
        <mxCell id="l2MW9axmsA3kfvPfDr8_-64" value="" style="pointerEvents=1;verticalLabelPosition=bottom;shadow=0;dashed=0;align=center;html=1;verticalAlign=top;shape=mxgraph.electrical.signal_sources.signal_ground;" vertex="1" parent="1">
          <mxGeometry x="610" y="602.21" width="20" height="15" as="geometry" />
        </mxCell>
        <mxCell id="l2MW9axmsA3kfvPfDr8_-65" style="edgeStyle=orthogonalEdgeStyle;rounded=0;orthogonalLoop=1;jettySize=auto;html=1;exitX=1;exitY=1;exitDx=0;exitDy=0;exitPerimeter=0;entryX=0.5;entryY=0;entryDx=0;entryDy=0;entryPerimeter=0;endArrow=none;endFill=0;" edge="1" parent="1" source="l2MW9axmsA3kfvPfDr8_-63" target="l2MW9axmsA3kfvPfDr8_-64">
          <mxGeometry relative="1" as="geometry" />
        </mxCell>
        <mxCell id="l2MW9axmsA3kfvPfDr8_-66" value="" style="ellipse;whiteSpace=wrap;html=1;aspect=fixed;fillColor=#000000;" vertex="1" parent="1">
          <mxGeometry x="617.5" y="499.25" width="5" height="5" as="geometry" />
        </mxCell>
        <mxCell id="l2MW9axmsA3kfvPfDr8_-71" style="edgeStyle=orthogonalEdgeStyle;rounded=0;orthogonalLoop=1;jettySize=auto;html=1;endArrow=none;endFill=0;" edge="1" parent="1" source="l2MW9axmsA3kfvPfDr8_-68">
          <mxGeometry relative="1" as="geometry">
            <mxPoint x="550.5" y="460" as="targetPoint" />
            <Array as="points">
              <mxPoint x="551" y="460" />
              <mxPoint x="551" y="460" />
            </Array>
          </mxGeometry>
        </mxCell>
        <mxCell id="l2MW9axmsA3kfvPfDr8_-81" style="edgeStyle=orthogonalEdgeStyle;rounded=0;orthogonalLoop=1;jettySize=auto;html=1;exitX=0;exitY=0.5;exitDx=0;exitDy=0;endArrow=none;endFill=0;" edge="1" parent="1" source="l2MW9axmsA3kfvPfDr8_-68">
          <mxGeometry relative="1" as="geometry">
            <mxPoint x="550.5813953488372" y="550" as="targetPoint" />
          </mxGeometry>
        </mxCell>
        <mxCell id="l2MW9axmsA3kfvPfDr8_-68" value="" style="triangle;whiteSpace=wrap;html=1;rotation=-90;" vertex="1" parent="1">
          <mxGeometry x="544" y="476.42" width="13" height="13" as="geometry" />
        </mxCell>
        <mxCell id="l2MW9axmsA3kfvPfDr8_-69" value="" style="endArrow=none;html=1;rounded=0;" edge="1" parent="1">
          <mxGeometry width="50" height="50" relative="1" as="geometry">
            <mxPoint x="544" y="476.19" as="sourcePoint" />
            <mxPoint x="558" y="476.38" as="targetPoint" />
          </mxGeometry>
        </mxCell>
        <mxCell id="l2MW9axmsA3kfvPfDr8_-70" value="D4" style="text;html=1;strokeColor=none;fillColor=none;align=center;verticalAlign=middle;whiteSpace=wrap;rounded=0;" vertex="1" parent="1">
          <mxGeometry x="525.5" y="476.41999999999996" width="12.5" height="17.5" as="geometry" />
        </mxCell>
        <mxCell id="l2MW9axmsA3kfvPfDr8_-72" value="" style="ellipse;whiteSpace=wrap;html=1;aspect=fixed;fillColor=#000000;" vertex="1" parent="1">
          <mxGeometry x="548" y="457" width="5" height="5" as="geometry" />
        </mxCell>
        <mxCell id="l2MW9axmsA3kfvPfDr8_-78" style="edgeStyle=orthogonalEdgeStyle;rounded=0;orthogonalLoop=1;jettySize=auto;html=1;exitX=0;exitY=0.5;exitDx=0;exitDy=0;exitPerimeter=0;endArrow=none;endFill=0;" edge="1" parent="1" source="l2MW9axmsA3kfvPfDr8_-76">
          <mxGeometry relative="1" as="geometry">
            <mxPoint x="567.093023255814" y="550" as="targetPoint" />
          </mxGeometry>
        </mxCell>
        <mxCell id="l2MW9axmsA3kfvPfDr8_-76" value="" style="pointerEvents=1;verticalLabelPosition=bottom;shadow=0;dashed=0;align=center;html=1;verticalAlign=top;shape=mxgraph.electrical.capacitors.capacitor_1;rotation=-90;" vertex="1" parent="1">
          <mxGeometry x="557" y="510" width="20" height="12" as="geometry" />
        </mxCell>
        <mxCell id="l2MW9axmsA3kfvPfDr8_-80" style="edgeStyle=orthogonalEdgeStyle;rounded=0;orthogonalLoop=1;jettySize=auto;html=1;exitX=1;exitY=0.5;exitDx=0;exitDy=0;exitPerimeter=0;endArrow=none;endFill=0;" edge="1" parent="1" source="l2MW9axmsA3kfvPfDr8_-77">
          <mxGeometry relative="1" as="geometry">
            <mxPoint x="567.5581395348837" y="460" as="targetPoint" />
          </mxGeometry>
        </mxCell>
        <mxCell id="l2MW9axmsA3kfvPfDr8_-77" value="R8" style="pointerEvents=1;verticalLabelPosition=bottom;shadow=0;dashed=0;align=center;html=1;verticalAlign=top;shape=mxgraph.electrical.resistors.resistor_2;rotation=-90;" vertex="1" parent="1">
          <mxGeometry x="557.5" y="476" width="20" height="7" as="geometry" />
        </mxCell>
        <mxCell id="l2MW9axmsA3kfvPfDr8_-79" style="edgeStyle=orthogonalEdgeStyle;rounded=0;orthogonalLoop=1;jettySize=auto;html=1;exitX=1;exitY=0.5;exitDx=0;exitDy=0;exitPerimeter=0;entryX=0;entryY=0.5;entryDx=0;entryDy=0;entryPerimeter=0;endArrow=none;endFill=0;" edge="1" parent="1" source="l2MW9axmsA3kfvPfDr8_-76" target="l2MW9axmsA3kfvPfDr8_-77">
          <mxGeometry relative="1" as="geometry" />
        </mxCell>
        <mxCell id="l2MW9axmsA3kfvPfDr8_-82" value="C1" style="text;html=1;strokeColor=none;fillColor=none;align=center;verticalAlign=middle;whiteSpace=wrap;rounded=0;" vertex="1" parent="1">
          <mxGeometry x="553" y="514.71" width="12.5" height="17.5" as="geometry" />
        </mxCell>
        <mxCell id="l2MW9axmsA3kfvPfDr8_-84" value="R7" style="pointerEvents=1;verticalLabelPosition=bottom;shadow=0;dashed=0;align=center;html=1;verticalAlign=top;shape=mxgraph.electrical.resistors.resistor_2;rotation=0;" vertex="1" parent="1">
          <mxGeometry x="653.995" y="518.785" width="40" height="11.43" as="geometry" />
        </mxCell>
        <mxCell id="l2MW9axmsA3kfvPfDr8_-85" style="edgeStyle=orthogonalEdgeStyle;rounded=0;orthogonalLoop=1;jettySize=auto;html=1;exitX=0;exitY=0.5;exitDx=0;exitDy=0;exitPerimeter=0;entryX=0;entryY=0.5;entryDx=0;entryDy=0;entryPerimeter=0;endArrow=none;endFill=0;" edge="1" parent="1" source="l2MW9axmsA3kfvPfDr8_-84" target="l2MW9axmsA3kfvPfDr8_-63">
          <mxGeometry relative="1" as="geometry" />
        </mxCell>
        <mxCell id="l2MW9axmsA3kfvPfDr8_-86" value="" style="rounded=0;whiteSpace=wrap;html=1;" vertex="1" parent="1">
          <mxGeometry x="693.99" y="517.93" width="30" height="15" as="geometry" />
        </mxCell>
        <mxCell id="l2MW9axmsA3kfvPfDr8_-87" value="GPIO overcurrent" style="text;html=1;strokeColor=none;fillColor=none;align=center;verticalAlign=middle;whiteSpace=wrap;rounded=0;" vertex="1" parent="1">
          <mxGeometry x="700" y="490" width="12.5" height="17.5" as="geometry" />
        </mxCell>
        <mxCell id="l2MW9axmsA3kfvPfDr8_-92" value="&lt;div&gt;&lt;font style=&quot;font-size: 19px;&quot;&gt;Vshunt&lt;/font&gt;&lt;/div&gt;" style="text;html=1;strokeColor=none;fillColor=none;align=center;verticalAlign=middle;whiteSpace=wrap;rounded=0;" vertex="1" parent="1">
          <mxGeometry x="712.5" y="402" width="53" height="20" as="geometry" />
        </mxCell>
        <mxCell id="l2MW9axmsA3kfvPfDr8_-93" value="&lt;div&gt;&lt;font style=&quot;font-size: 19px;&quot;&gt;Vshunt&lt;/font&gt;&lt;/div&gt;" style="text;html=1;strokeColor=none;fillColor=none;align=center;verticalAlign=middle;whiteSpace=wrap;rounded=0;" vertex="1" parent="1">
          <mxGeometry x="279.25" y="650" width="53" height="20" as="geometry" />
        </mxCell>
        <mxCell id="l2MW9axmsA3kfvPfDr8_-95" style="edgeStyle=orthogonalEdgeStyle;rounded=0;orthogonalLoop=1;jettySize=auto;html=1;exitX=1;exitY=0.5;exitDx=0;exitDy=0;exitPerimeter=0;entryX=0.5;entryY=1;entryDx=0;entryDy=0;endArrow=none;endFill=0;" edge="1" parent="1" source="l2MW9axmsA3kfvPfDr8_-94" target="l2MW9axmsA3kfvPfDr8_-58">
          <mxGeometry relative="1" as="geometry" />
        </mxCell>
        <mxCell id="l2MW9axmsA3kfvPfDr8_-94" value="R1" style="pointerEvents=1;verticalLabelPosition=bottom;shadow=0;dashed=0;align=center;html=1;verticalAlign=top;shape=mxgraph.electrical.resistors.resistor_2;rotation=-90;" vertex="1" parent="1">
          <mxGeometry x="199.49500000000003" y="328.28499999999997" width="40" height="11.43" as="geometry" />
        </mxCell>
        <mxCell id="l2MW9axmsA3kfvPfDr8_-138" style="edgeStyle=orthogonalEdgeStyle;rounded=0;orthogonalLoop=1;jettySize=auto;html=1;exitX=1;exitY=0.5;exitDx=0;exitDy=0;exitPerimeter=0;endArrow=none;endFill=0;" edge="1" parent="1" source="l2MW9axmsA3kfvPfDr8_-98">
          <mxGeometry relative="1" as="geometry">
            <mxPoint x="305.8928571428571" y="670" as="targetPoint" />
          </mxGeometry>
        </mxCell>
        <mxCell id="l2MW9axmsA3kfvPfDr8_-211" style="edgeStyle=orthogonalEdgeStyle;rounded=0;orthogonalLoop=1;jettySize=auto;html=1;exitX=0;exitY=0.5;exitDx=0;exitDy=0;exitPerimeter=0;endArrow=none;endFill=0;" edge="1" parent="1" source="l2MW9axmsA3kfvPfDr8_-98">
          <mxGeometry relative="1" as="geometry">
            <mxPoint x="305.69972067039106" y="860.0000000000001" as="targetPoint" />
          </mxGeometry>
        </mxCell>
        <mxCell id="l2MW9axmsA3kfvPfDr8_-98" value="&lt;div&gt;R9&lt;/div&gt;" style="pointerEvents=1;verticalLabelPosition=bottom;shadow=0;dashed=0;align=center;html=1;verticalAlign=top;shape=mxgraph.electrical.resistors.resistor_2;rotation=-90;" vertex="1" parent="1">
          <mxGeometry x="285.75" y="770" width="40" height="11.43" as="geometry" />
        </mxCell>
        <mxCell id="l2MW9axmsA3kfvPfDr8_-106" style="edgeStyle=orthogonalEdgeStyle;rounded=0;orthogonalLoop=1;jettySize=auto;html=1;exitX=1;exitY=0.5;exitDx=0;exitDy=0;exitPerimeter=0;endArrow=none;endFill=0;" edge="1" parent="1" source="l2MW9axmsA3kfvPfDr8_-99">
          <mxGeometry relative="1" as="geometry">
            <mxPoint x="800" y="173.20000000000005" as="targetPoint" />
          </mxGeometry>
        </mxCell>
        <mxCell id="l2MW9axmsA3kfvPfDr8_-133" style="edgeStyle=orthogonalEdgeStyle;rounded=0;orthogonalLoop=1;jettySize=auto;html=1;exitX=0;exitY=0.835;exitDx=0;exitDy=0;exitPerimeter=0;endArrow=none;endFill=0;" edge="1" parent="1" source="l2MW9axmsA3kfvPfDr8_-99">
          <mxGeometry relative="1" as="geometry">
            <mxPoint x="530" y="240" as="targetPoint" />
          </mxGeometry>
        </mxCell>
        <mxCell id="l2MW9axmsA3kfvPfDr8_-99" value="" style="verticalLabelPosition=bottom;shadow=0;dashed=0;align=center;html=1;verticalAlign=top;shape=mxgraph.electrical.abstract.operational_amp_1;flipH=1;rotation=-180;" vertex="1" parent="1">
          <mxGeometry x="639.99" y="144" width="67.98" height="58" as="geometry" />
        </mxCell>
        <mxCell id="l2MW9axmsA3kfvPfDr8_-100" value="" style="endArrow=none;html=1;rounded=0;" edge="1" parent="1">
          <mxGeometry width="50" height="50" relative="1" as="geometry">
            <mxPoint x="666" y="150" as="sourcePoint" />
            <mxPoint x="696" y="150" as="targetPoint" />
          </mxGeometry>
        </mxCell>
        <mxCell id="l2MW9axmsA3kfvPfDr8_-101" value="12V" style="edgeLabel;html=1;align=center;verticalAlign=middle;resizable=0;points=[];" vertex="1" connectable="0" parent="l2MW9axmsA3kfvPfDr8_-100">
          <mxGeometry x="-0.1556" y="3" relative="1" as="geometry">
            <mxPoint x="2" y="-7" as="offset" />
          </mxGeometry>
        </mxCell>
        <mxCell id="l2MW9axmsA3kfvPfDr8_-104" value="" style="endArrow=none;html=1;rounded=0;" edge="1" parent="1">
          <mxGeometry width="50" height="50" relative="1" as="geometry">
            <mxPoint x="667" y="196" as="sourcePoint" />
            <mxPoint x="697" y="196" as="targetPoint" />
          </mxGeometry>
        </mxCell>
        <mxCell id="l2MW9axmsA3kfvPfDr8_-105" value="-12V" style="edgeLabel;html=1;align=center;verticalAlign=middle;resizable=0;points=[];" vertex="1" connectable="0" parent="l2MW9axmsA3kfvPfDr8_-104">
          <mxGeometry x="-0.1556" y="3" relative="1" as="geometry">
            <mxPoint y="17" as="offset" />
          </mxGeometry>
        </mxCell>
        <mxCell id="l2MW9axmsA3kfvPfDr8_-107" value="R10" style="pointerEvents=1;verticalLabelPosition=bottom;shadow=0;dashed=0;align=center;html=1;verticalAlign=top;shape=mxgraph.electrical.resistors.resistor_2;rotation=0;" vertex="1" parent="1">
          <mxGeometry x="629.995" y="234.715" width="40" height="11.43" as="geometry" />
        </mxCell>
        <mxCell id="l2MW9axmsA3kfvPfDr8_-108" value="" style="pointerEvents=1;verticalLabelPosition=bottom;shadow=0;dashed=0;align=center;html=1;verticalAlign=top;shape=mxgraph.electrical.signal_sources.signal_ground;rotation=-90;" vertex="1" parent="1">
          <mxGeometry x="663.98" y="232.93" width="20" height="15" as="geometry" />
        </mxCell>
        <mxCell id="l2MW9axmsA3kfvPfDr8_-112" style="edgeStyle=orthogonalEdgeStyle;rounded=0;orthogonalLoop=1;jettySize=auto;html=1;exitX=1;exitY=0.5;exitDx=0;exitDy=0;endArrow=none;endFill=0;" edge="1" parent="1" source="l2MW9axmsA3kfvPfDr8_-109">
          <mxGeometry relative="1" as="geometry">
            <mxPoint x="610" y="238.79999999999995" as="targetPoint" />
          </mxGeometry>
        </mxCell>
        <mxCell id="l2MW9axmsA3kfvPfDr8_-109" value="" style="rounded=0;whiteSpace=wrap;html=1;" vertex="1" parent="1">
          <mxGeometry x="560" y="232.92999999999995" width="30" height="15" as="geometry" />
        </mxCell>
        <mxCell id="l2MW9axmsA3kfvPfDr8_-110" value="GPIO select" style="text;html=1;strokeColor=none;fillColor=none;align=center;verticalAlign=middle;whiteSpace=wrap;rounded=0;" vertex="1" parent="1">
          <mxGeometry x="568.75" y="206.78" width="12.5" height="17.5" as="geometry" />
        </mxCell>
        <mxCell id="l2MW9axmsA3kfvPfDr8_-111" style="edgeStyle=orthogonalEdgeStyle;rounded=0;orthogonalLoop=1;jettySize=auto;html=1;exitX=0;exitY=0.5;exitDx=0;exitDy=0;exitPerimeter=0;endArrow=none;endFill=0;entryX=0;entryY=0.165;entryDx=0;entryDy=0;entryPerimeter=0;" edge="1" parent="1">
          <mxGeometry relative="1" as="geometry">
            <mxPoint x="629.9949999999999" y="240.43000000000006" as="sourcePoint" />
            <mxPoint x="639.99" y="192.43000000000006" as="targetPoint" />
            <Array as="points">
              <mxPoint x="610" y="240" />
              <mxPoint x="610" y="192" />
              <mxPoint x="640" y="192" />
            </Array>
          </mxGeometry>
        </mxCell>
        <mxCell id="l2MW9axmsA3kfvPfDr8_-113" value="R11" style="pointerEvents=1;verticalLabelPosition=bottom;shadow=0;dashed=0;align=center;html=1;verticalAlign=top;shape=mxgraph.electrical.resistors.resistor_2;rotation=-90;" vertex="1" parent="1">
          <mxGeometry x="459.995" y="196.85500000000002" width="40" height="11.43" as="geometry" />
        </mxCell>
        <mxCell id="l2MW9axmsA3kfvPfDr8_-114" value="R12" style="pointerEvents=1;verticalLabelPosition=bottom;shadow=0;dashed=0;align=center;html=1;verticalAlign=top;shape=mxgraph.electrical.resistors.resistor_2;rotation=-90;" vertex="1" parent="1">
          <mxGeometry x="460.00500000000005" y="269.005" width="40" height="11.43" as="geometry" />
        </mxCell>
        <mxCell id="l2MW9axmsA3kfvPfDr8_-116" style="edgeStyle=orthogonalEdgeStyle;rounded=0;orthogonalLoop=1;jettySize=auto;html=1;exitX=1;exitY=0.5;exitDx=0;exitDy=0;exitPerimeter=0;entryX=0;entryY=0.5;entryDx=0;entryDy=0;entryPerimeter=0;endArrow=none;endFill=0;" edge="1" parent="1" source="l2MW9axmsA3kfvPfDr8_-114" target="l2MW9axmsA3kfvPfDr8_-113">
          <mxGeometry relative="1" as="geometry">
            <Array as="points">
              <mxPoint x="480" y="240" />
              <mxPoint x="480" y="240" />
            </Array>
          </mxGeometry>
        </mxCell>
        <mxCell id="l2MW9axmsA3kfvPfDr8_-117" value="" style="endArrow=none;html=1;rounded=0;" edge="1" parent="1">
          <mxGeometry width="50" height="50" relative="1" as="geometry">
            <mxPoint x="464.75" y="182.68" as="sourcePoint" />
            <mxPoint x="494.75" y="182.68" as="targetPoint" />
            <Array as="points">
              <mxPoint x="474.75" y="182.68" />
            </Array>
          </mxGeometry>
        </mxCell>
        <mxCell id="l2MW9axmsA3kfvPfDr8_-118" value="3.3V" style="edgeLabel;html=1;align=center;verticalAlign=middle;resizable=0;points=[];" vertex="1" connectable="0" parent="l2MW9axmsA3kfvPfDr8_-117">
          <mxGeometry x="-0.1556" y="3" relative="1" as="geometry">
            <mxPoint x="2" y="-7" as="offset" />
          </mxGeometry>
        </mxCell>
        <mxCell id="l2MW9axmsA3kfvPfDr8_-120" value="" style="pointerEvents=1;verticalLabelPosition=bottom;shadow=0;dashed=0;align=center;html=1;verticalAlign=top;shape=mxgraph.electrical.signal_sources.signal_ground;" vertex="1" parent="1">
          <mxGeometry x="469.75" y="313.28" width="20" height="15" as="geometry" />
        </mxCell>
        <mxCell id="l2MW9axmsA3kfvPfDr8_-121" style="edgeStyle=orthogonalEdgeStyle;rounded=0;orthogonalLoop=1;jettySize=auto;html=1;exitX=0.5;exitY=0;exitDx=0;exitDy=0;exitPerimeter=0;entryX=0;entryY=0.5;entryDx=0;entryDy=0;entryPerimeter=0;endArrow=none;endFill=0;" edge="1" parent="1" source="l2MW9axmsA3kfvPfDr8_-120" target="l2MW9axmsA3kfvPfDr8_-114">
          <mxGeometry relative="1" as="geometry" />
        </mxCell>
        <mxCell id="l2MW9axmsA3kfvPfDr8_-122" value="A" style="edgeLabel;html=1;align=center;verticalAlign=middle;resizable=0;points=[];" vertex="1" connectable="0" parent="1">
          <mxGeometry x="790" y="174" as="geometry">
            <mxPoint x="2" y="-10" as="offset" />
          </mxGeometry>
        </mxCell>
        <mxCell id="l2MW9axmsA3kfvPfDr8_-128" style="edgeStyle=orthogonalEdgeStyle;rounded=0;orthogonalLoop=1;jettySize=auto;html=1;exitX=1;exitY=0.5;exitDx=0;exitDy=0;exitPerimeter=0;endArrow=none;endFill=0;" edge="1" parent="1" source="l2MW9axmsA3kfvPfDr8_-123">
          <mxGeometry relative="1" as="geometry">
            <mxPoint x="800" y="316.1034482758621" as="targetPoint" />
          </mxGeometry>
        </mxCell>
        <mxCell id="l2MW9axmsA3kfvPfDr8_-131" style="edgeStyle=orthogonalEdgeStyle;rounded=0;orthogonalLoop=1;jettySize=auto;html=1;exitX=0;exitY=0.835;exitDx=0;exitDy=0;exitPerimeter=0;endArrow=none;endFill=0;" edge="1" parent="1" source="l2MW9axmsA3kfvPfDr8_-123">
          <mxGeometry relative="1" as="geometry">
            <mxPoint x="610" y="240" as="targetPoint" />
          </mxGeometry>
        </mxCell>
        <mxCell id="l2MW9axmsA3kfvPfDr8_-134" style="edgeStyle=orthogonalEdgeStyle;rounded=0;orthogonalLoop=1;jettySize=auto;html=1;exitX=0;exitY=0.165;exitDx=0;exitDy=0;exitPerimeter=0;endArrow=none;endFill=0;" edge="1" parent="1" source="l2MW9axmsA3kfvPfDr8_-123">
          <mxGeometry relative="1" as="geometry">
            <mxPoint x="530" y="240" as="targetPoint" />
          </mxGeometry>
        </mxCell>
        <mxCell id="l2MW9axmsA3kfvPfDr8_-123" value="" style="verticalLabelPosition=bottom;shadow=0;dashed=0;align=center;html=1;verticalAlign=top;shape=mxgraph.electrical.abstract.operational_amp_1;flipH=1;rotation=-180;" vertex="1" parent="1">
          <mxGeometry x="639.99" y="287" width="67.98" height="58" as="geometry" />
        </mxCell>
        <mxCell id="l2MW9axmsA3kfvPfDr8_-124" value="" style="endArrow=none;html=1;rounded=0;" edge="1" parent="1">
          <mxGeometry width="50" height="50" relative="1" as="geometry">
            <mxPoint x="666.98" y="292.66" as="sourcePoint" />
            <mxPoint x="696.98" y="292.66" as="targetPoint" />
          </mxGeometry>
        </mxCell>
        <mxCell id="l2MW9axmsA3kfvPfDr8_-125" value="12V" style="edgeLabel;html=1;align=center;verticalAlign=middle;resizable=0;points=[];" vertex="1" connectable="0" parent="l2MW9axmsA3kfvPfDr8_-124">
          <mxGeometry x="-0.1556" y="3" relative="1" as="geometry">
            <mxPoint x="2" y="-7" as="offset" />
          </mxGeometry>
        </mxCell>
        <mxCell id="l2MW9axmsA3kfvPfDr8_-126" value="" style="endArrow=none;html=1;rounded=0;" edge="1" parent="1">
          <mxGeometry width="50" height="50" relative="1" as="geometry">
            <mxPoint x="667.98" y="338.66" as="sourcePoint" />
            <mxPoint x="697.98" y="338.66" as="targetPoint" />
          </mxGeometry>
        </mxCell>
        <mxCell id="l2MW9axmsA3kfvPfDr8_-127" value="-12V" style="edgeLabel;html=1;align=center;verticalAlign=middle;resizable=0;points=[];" vertex="1" connectable="0" parent="l2MW9axmsA3kfvPfDr8_-126">
          <mxGeometry x="-0.1556" y="3" relative="1" as="geometry">
            <mxPoint y="17" as="offset" />
          </mxGeometry>
        </mxCell>
        <mxCell id="l2MW9axmsA3kfvPfDr8_-130" value="B" style="edgeLabel;html=1;align=center;verticalAlign=middle;resizable=0;points=[];" vertex="1" connectable="0" parent="1">
          <mxGeometry x="790" y="316" as="geometry">
            <mxPoint x="2" y="-10" as="offset" />
          </mxGeometry>
        </mxCell>
        <mxCell id="l2MW9axmsA3kfvPfDr8_-132" value="" style="ellipse;whiteSpace=wrap;html=1;aspect=fixed;fillColor=#000000;" vertex="1" parent="1">
          <mxGeometry x="607" y="238" width="5" height="5" as="geometry" />
        </mxCell>
        <mxCell id="l2MW9axmsA3kfvPfDr8_-135" value="" style="endArrow=none;html=1;rounded=0;" edge="1" parent="1">
          <mxGeometry width="50" height="50" relative="1" as="geometry">
            <mxPoint x="480" y="240" as="sourcePoint" />
            <mxPoint x="530" y="240" as="targetPoint" />
          </mxGeometry>
        </mxCell>
        <mxCell id="l2MW9axmsA3kfvPfDr8_-136" value="" style="ellipse;whiteSpace=wrap;html=1;aspect=fixed;fillColor=#000000;" vertex="1" parent="1">
          <mxGeometry x="527" y="238" width="5" height="5" as="geometry" />
        </mxCell>
        <mxCell id="l2MW9axmsA3kfvPfDr8_-137" value="" style="ellipse;whiteSpace=wrap;html=1;aspect=fixed;fillColor=#000000;" vertex="1" parent="1">
          <mxGeometry x="477.25" y="238" width="5" height="5" as="geometry" />
        </mxCell>
        <mxCell id="l2MW9axmsA3kfvPfDr8_-139" value="" style="endArrow=none;html=1;rounded=0;" edge="1" parent="1">
          <mxGeometry width="50" height="50" relative="1" as="geometry">
            <mxPoint x="290.75" y="670" as="sourcePoint" />
            <mxPoint x="320.75" y="670" as="targetPoint" />
          </mxGeometry>
        </mxCell>
        <mxCell id="l2MW9axmsA3kfvPfDr8_-180" style="edgeStyle=elbowEdgeStyle;rounded=0;orthogonalLoop=1;jettySize=auto;html=1;exitX=1;exitY=1;exitDx=0;exitDy=0;exitPerimeter=0;endArrow=none;endFill=0;elbow=vertical;" edge="1" parent="1" source="l2MW9axmsA3kfvPfDr8_-141">
          <mxGeometry relative="1" as="geometry">
            <mxPoint x="550.75" y="820" as="targetPoint" />
            <Array as="points">
              <mxPoint x="510.75" y="670" />
            </Array>
          </mxGeometry>
        </mxCell>
        <mxCell id="l2MW9axmsA3kfvPfDr8_-217" style="edgeStyle=orthogonalEdgeStyle;rounded=0;orthogonalLoop=1;jettySize=auto;html=1;exitX=1;exitY=0;exitDx=0;exitDy=0;exitPerimeter=0;endArrow=none;endFill=0;" edge="1" parent="1" source="l2MW9axmsA3kfvPfDr8_-141">
          <mxGeometry relative="1" as="geometry">
            <mxPoint x="350.75" y="740" as="targetPoint" />
            <Array as="points">
              <mxPoint x="351.75" y="670" />
              <mxPoint x="351.75" y="740" />
            </Array>
          </mxGeometry>
        </mxCell>
        <mxCell id="l2MW9axmsA3kfvPfDr8_-141" value="" style="verticalLabelPosition=bottom;shadow=0;dashed=0;align=center;html=1;verticalAlign=top;shape=mxgraph.electrical.transistors.nmos;pointerEvents=1;rotation=-90;" vertex="1" parent="1">
          <mxGeometry x="420.73999999999995" y="651" width="40" height="78" as="geometry" />
        </mxCell>
        <mxCell id="l2MW9axmsA3kfvPfDr8_-174" style="edgeStyle=orthogonalEdgeStyle;rounded=0;orthogonalLoop=1;jettySize=auto;html=1;exitX=1;exitY=1;exitDx=0;exitDy=0;exitPerimeter=0;endArrow=none;endFill=0;" edge="1" parent="1" source="l2MW9axmsA3kfvPfDr8_-142">
          <mxGeometry relative="1" as="geometry">
            <mxPoint x="530.75" y="800" as="targetPoint" />
            <Array as="points">
              <mxPoint x="471.75" y="740" />
              <mxPoint x="530.75" y="740" />
            </Array>
          </mxGeometry>
        </mxCell>
        <mxCell id="l2MW9axmsA3kfvPfDr8_-216" style="edgeStyle=elbowEdgeStyle;rounded=0;orthogonalLoop=1;jettySize=auto;html=1;exitX=1;exitY=0;exitDx=0;exitDy=0;exitPerimeter=0;endArrow=none;endFill=0;elbow=vertical;" edge="1" parent="1" source="l2MW9axmsA3kfvPfDr8_-142">
          <mxGeometry relative="1" as="geometry">
            <mxPoint x="305.75" y="710" as="targetPoint" />
            <Array as="points">
              <mxPoint x="355.75" y="738" />
            </Array>
          </mxGeometry>
        </mxCell>
        <mxCell id="l2MW9axmsA3kfvPfDr8_-142" value="" style="verticalLabelPosition=bottom;shadow=0;dashed=0;align=center;html=1;verticalAlign=top;shape=mxgraph.electrical.transistors.nmos;pointerEvents=1;rotation=-90;" vertex="1" parent="1">
          <mxGeometry x="420.74999999999994" y="720" width="40" height="78" as="geometry" />
        </mxCell>
        <mxCell id="l2MW9axmsA3kfvPfDr8_-209" style="rounded=0;orthogonalLoop=1;jettySize=auto;html=1;exitX=1;exitY=0;exitDx=0;exitDy=0;exitPerimeter=0;endArrow=none;endFill=0;" edge="1" parent="1" source="l2MW9axmsA3kfvPfDr8_-143">
          <mxGeometry relative="1" as="geometry">
            <mxPoint x="305.75" y="817" as="targetPoint" />
          </mxGeometry>
        </mxCell>
        <mxCell id="l2MW9axmsA3kfvPfDr8_-143" value="" style="verticalLabelPosition=bottom;shadow=0;dashed=0;align=center;html=1;verticalAlign=top;shape=mxgraph.electrical.transistors.nmos;pointerEvents=1;rotation=-90;" vertex="1" parent="1">
          <mxGeometry x="420.24999999999994" y="798" width="40" height="78" as="geometry" />
        </mxCell>
        <mxCell id="l2MW9axmsA3kfvPfDr8_-179" style="edgeStyle=orthogonalEdgeStyle;rounded=0;orthogonalLoop=1;jettySize=auto;html=1;exitX=1;exitY=1;exitDx=0;exitDy=0;exitPerimeter=0;endArrow=none;endFill=0;" edge="1" parent="1" source="l2MW9axmsA3kfvPfDr8_-144">
          <mxGeometry relative="1" as="geometry">
            <mxPoint x="550.75" y="820" as="targetPoint" />
            <Array as="points">
              <mxPoint x="551" y="889" />
            </Array>
          </mxGeometry>
        </mxCell>
        <mxCell id="l2MW9axmsA3kfvPfDr8_-212" style="edgeStyle=orthogonalEdgeStyle;rounded=0;orthogonalLoop=1;jettySize=auto;html=1;exitX=1;exitY=0;exitDx=0;exitDy=0;exitPerimeter=0;endArrow=none;endFill=0;" edge="1" parent="1" source="l2MW9axmsA3kfvPfDr8_-144">
          <mxGeometry relative="1" as="geometry">
            <mxPoint x="369.75" y="817" as="targetPoint" />
            <Array as="points">
              <mxPoint x="370" y="889" />
            </Array>
          </mxGeometry>
        </mxCell>
        <mxCell id="l2MW9axmsA3kfvPfDr8_-144" value="" style="verticalLabelPosition=bottom;shadow=0;dashed=0;align=center;html=1;verticalAlign=top;shape=mxgraph.electrical.transistors.nmos;pointerEvents=1;rotation=-90;" vertex="1" parent="1">
          <mxGeometry x="420.25" y="870" width="40" height="78" as="geometry" />
        </mxCell>
        <mxCell id="l2MW9axmsA3kfvPfDr8_-145" value="A" style="edgeLabel;html=1;align=center;verticalAlign=middle;resizable=0;points=[];" vertex="1" connectable="0" parent="1">
          <mxGeometry x="440.25" y="720" as="geometry">
            <mxPoint x="2" y="-10" as="offset" />
          </mxGeometry>
        </mxCell>
        <mxCell id="l2MW9axmsA3kfvPfDr8_-147" value="NMOS2" style="text;html=1;strokeColor=none;fillColor=none;align=center;verticalAlign=middle;whiteSpace=wrap;rounded=0;" vertex="1" parent="1">
          <mxGeometry x="464.5" y="680" width="40" height="30" as="geometry" />
        </mxCell>
        <mxCell id="l2MW9axmsA3kfvPfDr8_-148" value="NMOS3" style="text;html=1;strokeColor=none;fillColor=none;align=center;verticalAlign=middle;whiteSpace=wrap;rounded=0;" vertex="1" parent="1">
          <mxGeometry x="453.25" y="751.43" width="60" height="30" as="geometry" />
        </mxCell>
        <mxCell id="l2MW9axmsA3kfvPfDr8_-149" value="NMOS4" style="text;html=1;strokeColor=none;fillColor=none;align=center;verticalAlign=middle;whiteSpace=wrap;rounded=0;" vertex="1" parent="1">
          <mxGeometry x="464.5" y="828" width="32.5" height="18" as="geometry" />
        </mxCell>
        <mxCell id="l2MW9axmsA3kfvPfDr8_-150" value="A" style="edgeLabel;html=1;align=center;verticalAlign=middle;resizable=0;points=[];" vertex="1" connectable="0" parent="1">
          <mxGeometry x="440.25" y="870" as="geometry">
            <mxPoint x="2" y="-10" as="offset" />
          </mxGeometry>
        </mxCell>
        <mxCell id="l2MW9axmsA3kfvPfDr8_-152" value="OPAMP1" style="text;html=1;strokeColor=none;fillColor=none;align=center;verticalAlign=middle;whiteSpace=wrap;rounded=0;" vertex="1" parent="1">
          <mxGeometry x="600" y="114" width="60" height="30" as="geometry" />
        </mxCell>
        <mxCell id="l2MW9axmsA3kfvPfDr8_-153" value="OPAMP2" style="text;html=1;strokeColor=none;fillColor=none;align=center;verticalAlign=middle;whiteSpace=wrap;rounded=0;" vertex="1" parent="1">
          <mxGeometry x="600" y="345" width="60" height="30" as="geometry" />
        </mxCell>
        <mxCell id="l2MW9axmsA3kfvPfDr8_-154" value="NMOS5" style="text;html=1;strokeColor=none;fillColor=none;align=center;verticalAlign=middle;whiteSpace=wrap;rounded=0;" vertex="1" parent="1">
          <mxGeometry x="459.5" y="901" width="42.5" height="16" as="geometry" />
        </mxCell>
        <mxCell id="l2MW9axmsA3kfvPfDr8_-181" style="edgeStyle=orthogonalEdgeStyle;rounded=0;orthogonalLoop=1;jettySize=auto;html=1;exitX=0;exitY=0.5;exitDx=0;exitDy=0;exitPerimeter=0;endArrow=none;endFill=0;" edge="1" parent="1" source="l2MW9axmsA3kfvPfDr8_-155">
          <mxGeometry relative="1" as="geometry">
            <mxPoint x="550.75" y="758.9444444444445" as="targetPoint" />
          </mxGeometry>
        </mxCell>
        <mxCell id="l2MW9axmsA3kfvPfDr8_-155" value="&lt;div&gt;R13&lt;/div&gt;" style="pointerEvents=1;verticalLabelPosition=bottom;shadow=0;dashed=0;align=center;html=1;verticalAlign=top;shape=mxgraph.electrical.resistors.resistor_2;rotation=0;" vertex="1" parent="1">
          <mxGeometry x="560.7450000000001" y="753.285" width="40" height="11.43" as="geometry" />
        </mxCell>
        <mxCell id="l2MW9axmsA3kfvPfDr8_-158" value="R14" style="pointerEvents=1;verticalLabelPosition=bottom;shadow=0;dashed=0;align=center;html=1;verticalAlign=top;shape=mxgraph.electrical.resistors.resistor_2;rotation=0;" vertex="1" parent="1">
          <mxGeometry x="560.75" y="793.9999999999999" width="40" height="11.43" as="geometry" />
        </mxCell>
        <mxCell id="l2MW9axmsA3kfvPfDr8_-160" value="" style="pointerEvents=1;verticalLabelPosition=bottom;shadow=0;dashed=0;align=center;html=1;verticalAlign=top;shape=mxgraph.electrical.capacitors.capacitor_1;rotation=-90;" vertex="1" parent="1">
          <mxGeometry x="607.5" y="770" width="40.25" height="20" as="geometry" />
        </mxCell>
        <mxCell id="l2MW9axmsA3kfvPfDr8_-161" style="edgeStyle=orthogonalEdgeStyle;rounded=0;orthogonalLoop=1;jettySize=auto;html=1;exitX=1;exitY=0.5;exitDx=0;exitDy=0;exitPerimeter=0;entryX=1;entryY=0.5;entryDx=0;entryDy=0;entryPerimeter=0;endArrow=none;endFill=0;" edge="1" parent="1" source="l2MW9axmsA3kfvPfDr8_-155" target="l2MW9axmsA3kfvPfDr8_-160">
          <mxGeometry relative="1" as="geometry" />
        </mxCell>
        <mxCell id="l2MW9axmsA3kfvPfDr8_-162" style="edgeStyle=orthogonalEdgeStyle;rounded=0;orthogonalLoop=1;jettySize=auto;html=1;exitX=1;exitY=0.5;exitDx=0;exitDy=0;exitPerimeter=0;entryX=1.026;entryY=0.497;entryDx=0;entryDy=0;entryPerimeter=0;endArrow=none;endFill=0;" edge="1" parent="1" source="l2MW9axmsA3kfvPfDr8_-160" target="l2MW9axmsA3kfvPfDr8_-160">
          <mxGeometry relative="1" as="geometry" />
        </mxCell>
        <mxCell id="l2MW9axmsA3kfvPfDr8_-163" style="edgeStyle=orthogonalEdgeStyle;rounded=0;orthogonalLoop=1;jettySize=auto;html=1;exitX=1;exitY=0.5;exitDx=0;exitDy=0;exitPerimeter=0;entryX=0;entryY=0.5;entryDx=0;entryDy=0;entryPerimeter=0;endArrow=none;endFill=0;" edge="1" parent="1" source="l2MW9axmsA3kfvPfDr8_-158" target="l2MW9axmsA3kfvPfDr8_-160">
          <mxGeometry relative="1" as="geometry" />
        </mxCell>
        <mxCell id="l2MW9axmsA3kfvPfDr8_-164" value="C2" style="text;html=1;strokeColor=none;fillColor=none;align=center;verticalAlign=middle;whiteSpace=wrap;rounded=0;" vertex="1" parent="1">
          <mxGeometry x="630.5" y="780.5" width="12.5" height="17.5" as="geometry" />
        </mxCell>
        <mxCell id="l2MW9axmsA3kfvPfDr8_-199" style="edgeStyle=orthogonalEdgeStyle;rounded=0;orthogonalLoop=1;jettySize=auto;html=1;exitX=0;exitY=0.5;exitDx=0;exitDy=0;exitPerimeter=0;endArrow=none;endFill=0;" edge="1" parent="1" source="l2MW9axmsA3kfvPfDr8_-167">
          <mxGeometry relative="1" as="geometry">
            <mxPoint x="660.75" y="759.2222222222222" as="targetPoint" />
          </mxGeometry>
        </mxCell>
        <mxCell id="l2MW9axmsA3kfvPfDr8_-167" value="" style="pointerEvents=1;verticalLabelPosition=bottom;shadow=0;dashed=0;align=center;html=1;verticalAlign=top;shape=mxgraph.electrical.capacitors.capacitor_1;rotation=-90;" vertex="1" parent="1">
          <mxGeometry x="607.505" y="729.005" width="40.25" height="20" as="geometry" />
        </mxCell>
        <mxCell id="l2MW9axmsA3kfvPfDr8_-168" value="C3" style="text;html=1;strokeColor=none;fillColor=none;align=center;verticalAlign=middle;whiteSpace=wrap;rounded=0;" vertex="1" parent="1">
          <mxGeometry x="630.505" y="739.505" width="12.5" height="17.5" as="geometry" />
        </mxCell>
        <mxCell id="l2MW9axmsA3kfvPfDr8_-169" value="" style="pointerEvents=1;verticalLabelPosition=bottom;shadow=0;dashed=0;align=center;html=1;verticalAlign=top;shape=mxgraph.electrical.signal_sources.signal_ground;rotation=-180;" vertex="1" parent="1">
          <mxGeometry x="617.62" y="705" width="20" height="15" as="geometry" />
        </mxCell>
        <mxCell id="l2MW9axmsA3kfvPfDr8_-170" value="" style="pointerEvents=1;verticalLabelPosition=bottom;shadow=0;dashed=0;align=center;html=1;verticalAlign=top;shape=mxgraph.electrical.signal_sources.signal_ground;" vertex="1" parent="1">
          <mxGeometry x="617.62" y="837.43" width="20" height="15" as="geometry" />
        </mxCell>
        <mxCell id="l2MW9axmsA3kfvPfDr8_-171" value="" style="pointerEvents=1;verticalLabelPosition=bottom;shadow=0;dashed=0;align=center;html=1;verticalAlign=top;shape=mxgraph.electrical.capacitors.capacitor_1;rotation=-90;" vertex="1" parent="1">
          <mxGeometry x="607.495" y="809.425" width="40.25" height="20" as="geometry" />
        </mxCell>
        <mxCell id="l2MW9axmsA3kfvPfDr8_-172" value="C4" style="text;html=1;strokeColor=none;fillColor=none;align=center;verticalAlign=middle;whiteSpace=wrap;rounded=0;" vertex="1" parent="1">
          <mxGeometry x="630.495" y="819.925" width="12.5" height="17.5" as="geometry" />
        </mxCell>
        <mxCell id="l2MW9axmsA3kfvPfDr8_-173" style="edgeStyle=orthogonalEdgeStyle;rounded=0;orthogonalLoop=1;jettySize=auto;html=1;exitX=1;exitY=1;exitDx=0;exitDy=0;exitPerimeter=0;entryX=0;entryY=0.5;entryDx=0;entryDy=0;entryPerimeter=0;endArrow=none;endFill=0;" edge="1" parent="1" source="l2MW9axmsA3kfvPfDr8_-143" target="l2MW9axmsA3kfvPfDr8_-158">
          <mxGeometry relative="1" as="geometry">
            <Array as="points">
              <mxPoint x="471.75" y="800" />
              <mxPoint x="515.75" y="800" />
            </Array>
          </mxGeometry>
        </mxCell>
        <mxCell id="l2MW9axmsA3kfvPfDr8_-175" value="" style="ellipse;whiteSpace=wrap;html=1;aspect=fixed;fillColor=#000000;" vertex="1" parent="1">
          <mxGeometry x="565" y="457" width="5" height="5" as="geometry" />
        </mxCell>
        <mxCell id="l2MW9axmsA3kfvPfDr8_-176" value="" style="ellipse;whiteSpace=wrap;html=1;aspect=fixed;fillColor=#000000;" vertex="1" parent="1">
          <mxGeometry x="548" y="547" width="5" height="5" as="geometry" />
        </mxCell>
        <mxCell id="l2MW9axmsA3kfvPfDr8_-177" value="" style="ellipse;whiteSpace=wrap;html=1;aspect=fixed;fillColor=#000000;" vertex="1" parent="1">
          <mxGeometry x="565" y="547" width="5" height="5" as="geometry" />
        </mxCell>
        <mxCell id="l2MW9axmsA3kfvPfDr8_-178" value="" style="ellipse;whiteSpace=wrap;html=1;aspect=fixed;fillColor=#000000;" vertex="1" parent="1">
          <mxGeometry x="527.75" y="797" width="5" height="5" as="geometry" />
        </mxCell>
        <mxCell id="l2MW9axmsA3kfvPfDr8_-182" value="" style="ellipse;whiteSpace=wrap;html=1;aspect=fixed;fillColor=#000000;" vertex="1" parent="1">
          <mxGeometry x="547.75" y="757" width="5" height="5" as="geometry" />
        </mxCell>
        <mxCell id="l2MW9axmsA3kfvPfDr8_-183" value="B" style="edgeLabel;html=1;align=center;verticalAlign=middle;resizable=0;points=[];" vertex="1" connectable="0" parent="1">
          <mxGeometry x="440.25" y="794.0000000000001" as="geometry">
            <mxPoint x="2" y="-10" as="offset" />
          </mxGeometry>
        </mxCell>
        <mxCell id="l2MW9axmsA3kfvPfDr8_-192" style="edgeStyle=orthogonalEdgeStyle;rounded=0;orthogonalLoop=1;jettySize=auto;html=1;exitX=0.815;exitY=0.292;exitDx=0;exitDy=0;exitPerimeter=0;endArrow=none;endFill=0;" edge="1" parent="1" source="l2MW9axmsA3kfvPfDr8_-185">
          <mxGeometry relative="1" as="geometry">
            <mxPoint x="765.1785714285713" y="820" as="targetPoint" />
          </mxGeometry>
        </mxCell>
        <mxCell id="l2MW9axmsA3kfvPfDr8_-194" style="edgeStyle=orthogonalEdgeStyle;rounded=0;orthogonalLoop=1;jettySize=auto;html=1;exitX=0.815;exitY=0.708;exitDx=0;exitDy=0;exitPerimeter=0;endArrow=none;endFill=0;" edge="1" parent="1" source="l2MW9axmsA3kfvPfDr8_-185">
          <mxGeometry relative="1" as="geometry">
            <mxPoint x="800.75" y="747.8333333333333" as="targetPoint" />
            <Array as="points">
              <mxPoint x="782.75" y="748" />
            </Array>
          </mxGeometry>
        </mxCell>
        <mxCell id="l2MW9axmsA3kfvPfDr8_-196" style="edgeStyle=orthogonalEdgeStyle;rounded=0;orthogonalLoop=1;jettySize=auto;html=1;exitX=1;exitY=0.5;exitDx=0;exitDy=0;exitPerimeter=0;endArrow=none;endFill=0;" edge="1" parent="1" source="l2MW9axmsA3kfvPfDr8_-185">
          <mxGeometry relative="1" as="geometry">
            <mxPoint x="890.75" y="766.4444444444443" as="targetPoint" />
          </mxGeometry>
        </mxCell>
        <mxCell id="l2MW9axmsA3kfvPfDr8_-200" style="edgeStyle=orthogonalEdgeStyle;rounded=0;orthogonalLoop=1;jettySize=auto;html=1;exitX=0;exitY=0.835;exitDx=0;exitDy=0;exitPerimeter=0;endArrow=none;endFill=0;" edge="1" parent="1" source="l2MW9axmsA3kfvPfDr8_-185">
          <mxGeometry relative="1" as="geometry">
            <mxPoint x="660.75" y="760" as="targetPoint" />
          </mxGeometry>
        </mxCell>
        <mxCell id="l2MW9axmsA3kfvPfDr8_-185" value="" style="verticalLabelPosition=bottom;shadow=0;dashed=0;align=center;html=1;verticalAlign=top;shape=mxgraph.electrical.abstract.operational_amp_2;flipV=1;" vertex="1" parent="1">
          <mxGeometry x="685.25" y="721.43" width="98" height="90" as="geometry" />
        </mxCell>
        <mxCell id="l2MW9axmsA3kfvPfDr8_-186" value="" style="endArrow=none;html=1;rounded=0;" edge="1" parent="1">
          <mxGeometry width="50" height="50" relative="1" as="geometry">
            <mxPoint x="710.75" y="726.43" as="sourcePoint" />
            <mxPoint x="740.75" y="726.43" as="targetPoint" />
          </mxGeometry>
        </mxCell>
        <mxCell id="l2MW9axmsA3kfvPfDr8_-187" value="12V" style="edgeLabel;html=1;align=center;verticalAlign=middle;resizable=0;points=[];" vertex="1" connectable="0" parent="l2MW9axmsA3kfvPfDr8_-186">
          <mxGeometry x="-0.1556" y="3" relative="1" as="geometry">
            <mxPoint x="2" y="-7" as="offset" />
          </mxGeometry>
        </mxCell>
        <mxCell id="l2MW9axmsA3kfvPfDr8_-188" value="" style="endArrow=none;html=1;rounded=0;" edge="1" parent="1">
          <mxGeometry width="50" height="50" relative="1" as="geometry">
            <mxPoint x="710.75" y="807" as="sourcePoint" />
            <mxPoint x="740.75" y="807" as="targetPoint" />
          </mxGeometry>
        </mxCell>
        <mxCell id="l2MW9axmsA3kfvPfDr8_-189" value="-12V" style="edgeLabel;html=1;align=center;verticalAlign=middle;resizable=0;points=[];" vertex="1" connectable="0" parent="l2MW9axmsA3kfvPfDr8_-188">
          <mxGeometry x="-0.1556" y="3" relative="1" as="geometry">
            <mxPoint x="2" y="13" as="offset" />
          </mxGeometry>
        </mxCell>
        <mxCell id="l2MW9axmsA3kfvPfDr8_-191" style="edgeStyle=orthogonalEdgeStyle;rounded=0;orthogonalLoop=1;jettySize=auto;html=1;exitX=0;exitY=0.5;exitDx=0;exitDy=0;exitPerimeter=0;endArrow=none;endFill=0;" edge="1" parent="1" source="l2MW9axmsA3kfvPfDr8_-190">
          <mxGeometry relative="1" as="geometry">
            <mxPoint x="764.75" y="819" as="targetPoint" />
          </mxGeometry>
        </mxCell>
        <mxCell id="l2MW9axmsA3kfvPfDr8_-195" style="edgeStyle=orthogonalEdgeStyle;rounded=0;orthogonalLoop=1;jettySize=auto;html=1;exitX=1;exitY=0.5;exitDx=0;exitDy=0;exitPerimeter=0;endArrow=none;endFill=0;" edge="1" parent="1" source="l2MW9axmsA3kfvPfDr8_-190">
          <mxGeometry relative="1" as="geometry">
            <mxPoint x="800.1388888888889" y="747.2777777777777" as="targetPoint" />
          </mxGeometry>
        </mxCell>
        <mxCell id="l2MW9axmsA3kfvPfDr8_-190" value="R15" style="pointerEvents=1;verticalLabelPosition=bottom;shadow=0;dashed=0;align=center;html=1;verticalAlign=top;shape=mxgraph.electrical.resistors.resistor_2;rotation=-90;" vertex="1" parent="1">
          <mxGeometry x="780.7450000000001" y="808.4949999999999" width="40" height="11.43" as="geometry" />
        </mxCell>
        <mxCell id="l2MW9axmsA3kfvPfDr8_-197" value="" style="rounded=0;whiteSpace=wrap;html=1;" vertex="1" parent="1">
          <mxGeometry x="890.75" y="756.93" width="30" height="15" as="geometry" />
        </mxCell>
        <mxCell id="l2MW9axmsA3kfvPfDr8_-198" value="ADC" style="text;html=1;strokeColor=none;fillColor=none;align=center;verticalAlign=middle;whiteSpace=wrap;rounded=0;" vertex="1" parent="1">
          <mxGeometry x="899.5" y="735.78" width="12.5" height="17.5" as="geometry" />
        </mxCell>
        <mxCell id="l2MW9axmsA3kfvPfDr8_-204" style="edgeStyle=orthogonalEdgeStyle;rounded=0;orthogonalLoop=1;jettySize=auto;html=1;exitX=1;exitY=0.5;exitDx=0;exitDy=0;exitPerimeter=0;entryX=0.005;entryY=0.165;entryDx=0;entryDy=0;entryPerimeter=0;endArrow=none;endFill=0;" edge="1" parent="1" source="l2MW9axmsA3kfvPfDr8_-207" target="l2MW9axmsA3kfvPfDr8_-185">
          <mxGeometry relative="1" as="geometry">
            <Array as="points">
              <mxPoint x="661.75" y="799" />
              <mxPoint x="661.75" y="797" />
            </Array>
          </mxGeometry>
        </mxCell>
        <mxCell id="l2MW9axmsA3kfvPfDr8_-205" value="" style="ellipse;whiteSpace=wrap;html=1;aspect=fixed;fillColor=#000000;" vertex="1" parent="1">
          <mxGeometry x="624.75" y="757" width="5" height="5" as="geometry" />
        </mxCell>
        <mxCell id="l2MW9axmsA3kfvPfDr8_-208" value="" style="edgeStyle=orthogonalEdgeStyle;rounded=0;orthogonalLoop=1;jettySize=auto;html=1;exitX=1;exitY=0.5;exitDx=0;exitDy=0;exitPerimeter=0;entryX=0.005;entryY=0.165;entryDx=0;entryDy=0;entryPerimeter=0;endArrow=none;endFill=0;" edge="1" parent="1" source="l2MW9axmsA3kfvPfDr8_-171" target="l2MW9axmsA3kfvPfDr8_-207">
          <mxGeometry relative="1" as="geometry">
            <mxPoint x="627.75" y="799" as="sourcePoint" />
            <mxPoint x="685.75" y="797" as="targetPoint" />
            <Array as="points" />
          </mxGeometry>
        </mxCell>
        <mxCell id="l2MW9axmsA3kfvPfDr8_-207" value="" style="ellipse;whiteSpace=wrap;html=1;aspect=fixed;fillColor=#000000;" vertex="1" parent="1">
          <mxGeometry x="625.13" y="797.21" width="5" height="5" as="geometry" />
        </mxCell>
        <mxCell id="l2MW9axmsA3kfvPfDr8_-213" value="" style="ellipse;whiteSpace=wrap;html=1;aspect=fixed;fillColor=#000000;" vertex="1" parent="1">
          <mxGeometry x="366.75" y="815" width="5" height="5" as="geometry" />
        </mxCell>
        <mxCell id="l2MW9axmsA3kfvPfDr8_-218" value="" style="ellipse;whiteSpace=wrap;html=1;aspect=fixed;fillColor=#000000;" vertex="1" parent="1">
          <mxGeometry x="348.75" y="736" width="5" height="5" as="geometry" />
        </mxCell>
        <mxCell id="l2MW9axmsA3kfvPfDr8_-219" value="Current sense amplifier" style="text;html=1;strokeColor=none;fillColor=none;align=center;verticalAlign=middle;whiteSpace=wrap;rounded=0;" vertex="1" parent="1">
          <mxGeometry x="662.5" y="819.92" width="60" height="30" as="geometry" />
        </mxCell>
        <mxCell id="l2MW9axmsA3kfvPfDr8_-230" style="edgeStyle=orthogonalEdgeStyle;rounded=0;orthogonalLoop=1;jettySize=auto;html=1;exitX=0;exitY=0.835;exitDx=0;exitDy=0;exitPerimeter=0;endArrow=none;endFill=0;" edge="1" parent="1" source="l2MW9axmsA3kfvPfDr8_-220">
          <mxGeometry relative="1" as="geometry">
            <mxPoint x="105" y="871.4615384615387" as="targetPoint" />
          </mxGeometry>
        </mxCell>
        <mxCell id="l2MW9axmsA3kfvPfDr8_-240" style="edgeStyle=orthogonalEdgeStyle;rounded=0;orthogonalLoop=1;jettySize=auto;html=1;exitX=0;exitY=0.165;exitDx=0;exitDy=0;exitPerimeter=0;endArrow=none;endFill=0;" edge="1" parent="1">
          <mxGeometry relative="1" as="geometry">
            <mxPoint x="304" y="942.0300000000001" as="targetPoint" />
            <mxPoint x="178.5" y="910.4600000000002" as="sourcePoint" />
            <Array as="points">
              <mxPoint x="159" y="910.0300000000001" />
              <mxPoint x="159" y="940.0300000000001" />
              <mxPoint x="305" y="940.0300000000001" />
              <mxPoint x="305" y="942.0300000000001" />
            </Array>
          </mxGeometry>
        </mxCell>
        <mxCell id="l2MW9axmsA3kfvPfDr8_-220" value="" style="verticalLabelPosition=bottom;shadow=0;dashed=0;align=center;html=1;verticalAlign=top;shape=mxgraph.electrical.abstract.operational_amp_1;flipH=1;rotation=-180;" vertex="1" parent="1">
          <mxGeometry x="159.5" y="862.0000000000001" width="67.98" height="58" as="geometry" />
        </mxCell>
        <mxCell id="l2MW9axmsA3kfvPfDr8_-221" value="" style="verticalLabelPosition=bottom;shadow=0;dashed=0;align=center;html=1;verticalAlign=top;shape=mxgraph.electrical.transistors.nmos;pointerEvents=1;rotation=0;" vertex="1" parent="1">
          <mxGeometry x="265.99" y="852.0000000000001" width="40" height="78" as="geometry" />
        </mxCell>
        <mxCell id="l2MW9axmsA3kfvPfDr8_-222" value="" style="endArrow=none;html=1;rounded=0;" edge="1" parent="1">
          <mxGeometry width="50" height="50" relative="1" as="geometry">
            <mxPoint x="186.49" y="868.0000000000001" as="sourcePoint" />
            <mxPoint x="216.49" y="868.0000000000001" as="targetPoint" />
          </mxGeometry>
        </mxCell>
        <mxCell id="l2MW9axmsA3kfvPfDr8_-223" value="12V" style="edgeLabel;html=1;align=center;verticalAlign=middle;resizable=0;points=[];" vertex="1" connectable="0" parent="l2MW9axmsA3kfvPfDr8_-222">
          <mxGeometry x="-0.1556" y="3" relative="1" as="geometry">
            <mxPoint x="2" y="-7" as="offset" />
          </mxGeometry>
        </mxCell>
        <mxCell id="l2MW9axmsA3kfvPfDr8_-224" value="" style="endArrow=none;html=1;rounded=0;" edge="1" parent="1">
          <mxGeometry width="50" height="50" relative="1" as="geometry">
            <mxPoint x="186.49" y="913.6900000000002" as="sourcePoint" />
            <mxPoint x="216.49" y="913.6900000000002" as="targetPoint" />
          </mxGeometry>
        </mxCell>
        <mxCell id="l2MW9axmsA3kfvPfDr8_-225" value="-12V" style="edgeLabel;html=1;align=center;verticalAlign=middle;resizable=0;points=[];" vertex="1" connectable="0" parent="l2MW9axmsA3kfvPfDr8_-224">
          <mxGeometry x="-0.1556" y="3" relative="1" as="geometry">
            <mxPoint x="2" y="13" as="offset" />
          </mxGeometry>
        </mxCell>
        <mxCell id="l2MW9axmsA3kfvPfDr8_-226" style="edgeStyle=orthogonalEdgeStyle;rounded=0;orthogonalLoop=1;jettySize=auto;html=1;exitX=1;exitY=0.5;exitDx=0;exitDy=0;exitPerimeter=0;entryX=0;entryY=0.5;entryDx=0;entryDy=0;entryPerimeter=0;endArrow=none;endFill=0;" edge="1" parent="1" source="l2MW9axmsA3kfvPfDr8_-220" target="l2MW9axmsA3kfvPfDr8_-221">
          <mxGeometry relative="1" as="geometry" />
        </mxCell>
        <mxCell id="l2MW9axmsA3kfvPfDr8_-227" value="R16" style="pointerEvents=1;verticalLabelPosition=bottom;shadow=0;dashed=0;align=center;html=1;verticalAlign=top;shape=mxgraph.electrical.resistors.resistor_2;rotation=-90;" vertex="1" parent="1">
          <mxGeometry x="84.99500000000003" y="840.5749999999999" width="40" height="11.43" as="geometry" />
        </mxCell>
        <mxCell id="l2MW9axmsA3kfvPfDr8_-228" value="R17" style="pointerEvents=1;verticalLabelPosition=bottom;shadow=0;dashed=0;align=center;html=1;verticalAlign=top;shape=mxgraph.electrical.resistors.resistor_2;rotation=-90;" vertex="1" parent="1">
          <mxGeometry x="85.00500000000004" y="892.005" width="40" height="11.43" as="geometry" />
        </mxCell>
        <mxCell id="l2MW9axmsA3kfvPfDr8_-229" style="edgeStyle=orthogonalEdgeStyle;rounded=0;orthogonalLoop=1;jettySize=auto;html=1;exitX=0;exitY=0.5;exitDx=0;exitDy=0;exitPerimeter=0;entryX=1;entryY=0.5;entryDx=0;entryDy=0;entryPerimeter=0;endArrow=none;endFill=0;" edge="1" parent="1" source="l2MW9axmsA3kfvPfDr8_-227" target="l2MW9axmsA3kfvPfDr8_-228">
          <mxGeometry relative="1" as="geometry" />
        </mxCell>
        <mxCell id="l2MW9axmsA3kfvPfDr8_-231" value="" style="pointerEvents=1;verticalLabelPosition=bottom;shadow=0;dashed=0;align=center;html=1;verticalAlign=top;shape=mxgraph.electrical.signal_sources.signal_ground;" vertex="1" parent="1">
          <mxGeometry x="95" y="915.0000000000001" width="20" height="15" as="geometry" />
        </mxCell>
        <mxCell id="l2MW9axmsA3kfvPfDr8_-232" value="OPAMP3" style="text;html=1;strokeColor=none;fillColor=none;align=center;verticalAlign=middle;whiteSpace=wrap;rounded=0;" vertex="1" parent="1">
          <mxGeometry x="165" y="832.0000000000001" width="50" height="20" as="geometry" />
        </mxCell>
        <mxCell id="l2MW9axmsA3kfvPfDr8_-233" value="NMOS6" style="text;html=1;strokeColor=none;fillColor=none;align=center;verticalAlign=middle;whiteSpace=wrap;rounded=0;" vertex="1" parent="1">
          <mxGeometry x="253.75" y="862.0000000000001" width="42.5" height="16" as="geometry" />
        </mxCell>
        <mxCell id="l2MW9axmsA3kfvPfDr8_-235" value="R18" style="pointerEvents=1;verticalLabelPosition=bottom;shadow=0;dashed=0;align=center;html=1;verticalAlign=top;shape=mxgraph.electrical.resistors.resistor_2;rotation=-90;" vertex="1" parent="1">
          <mxGeometry x="285.9949999999999" y="951.9950000000002" width="40" height="11.43" as="geometry" />
        </mxCell>
        <mxCell id="l2MW9axmsA3kfvPfDr8_-236" style="edgeStyle=orthogonalEdgeStyle;rounded=0;orthogonalLoop=1;jettySize=auto;html=1;exitX=1;exitY=0.5;exitDx=0;exitDy=0;exitPerimeter=0;entryX=1;entryY=1;entryDx=0;entryDy=0;entryPerimeter=0;endArrow=none;endFill=0;" edge="1" parent="1" source="l2MW9axmsA3kfvPfDr8_-235" target="l2MW9axmsA3kfvPfDr8_-221">
          <mxGeometry relative="1" as="geometry" />
        </mxCell>
        <mxCell id="l2MW9axmsA3kfvPfDr8_-237" value="" style="pointerEvents=1;verticalLabelPosition=bottom;shadow=0;dashed=0;align=center;html=1;verticalAlign=top;shape=mxgraph.electrical.signal_sources.signal_ground;" vertex="1" parent="1">
          <mxGeometry x="296" y="977.0000000000001" width="20" height="15" as="geometry" />
        </mxCell>
        <mxCell id="l2MW9axmsA3kfvPfDr8_-238" value="R19" style="pointerEvents=1;verticalLabelPosition=bottom;shadow=0;dashed=0;align=center;html=1;verticalAlign=top;shape=mxgraph.electrical.resistors.resistor_2;rotation=-90;" vertex="1" parent="1">
          <mxGeometry x="840.0049999999999" y="781.4250000000001" width="40" height="11.43" as="geometry" />
        </mxCell>
        <mxCell id="l2MW9axmsA3kfvPfDr8_-239" value="" style="pointerEvents=1;verticalLabelPosition=bottom;shadow=0;dashed=0;align=center;html=1;verticalAlign=top;shape=mxgraph.electrical.signal_sources.signal_ground;" vertex="1" parent="1">
          <mxGeometry x="850" y="806.71" width="20" height="15" as="geometry" />
        </mxCell>
        <mxCell id="l2MW9axmsA3kfvPfDr8_-241" value="" style="ellipse;whiteSpace=wrap;html=1;aspect=fixed;fillColor=#000000;" vertex="1" parent="1">
          <mxGeometry x="303" y="938.0000000000001" width="5" height="5" as="geometry" />
        </mxCell>
        <mxCell id="l2MW9axmsA3kfvPfDr8_-242" value="" style="ellipse;whiteSpace=wrap;html=1;aspect=fixed;fillColor=#000000;" vertex="1" parent="1">
          <mxGeometry x="102" y="869.0000000000001" width="5" height="5" as="geometry" />
        </mxCell>
        <mxCell id="l2MW9axmsA3kfvPfDr8_-243" value="" style="ellipse;whiteSpace=wrap;html=1;aspect=fixed;fillColor=#000000;" vertex="1" parent="1">
          <mxGeometry x="857.5" y="763.93" width="5" height="5" as="geometry" />
        </mxCell>
        <mxCell id="l2MW9axmsA3kfvPfDr8_-244" value="" style="rounded=0;whiteSpace=wrap;html=1;" vertex="1" parent="1">
          <mxGeometry x="55" y="821.15" width="30" height="15" as="geometry" />
        </mxCell>
        <mxCell id="l2MW9axmsA3kfvPfDr8_-245" value="DAC" style="text;html=1;strokeColor=none;fillColor=none;align=center;verticalAlign=middle;whiteSpace=wrap;rounded=0;" vertex="1" parent="1">
          <mxGeometry x="63.75" y="800.0000000000001" width="12.5" height="17.5" as="geometry" />
        </mxCell>
        <mxCell id="l2MW9axmsA3kfvPfDr8_-246" style="edgeStyle=orthogonalEdgeStyle;rounded=0;orthogonalLoop=1;jettySize=auto;html=1;exitX=1;exitY=0.5;exitDx=0;exitDy=0;entryX=1;entryY=0.5;entryDx=0;entryDy=0;entryPerimeter=0;endArrow=none;endFill=0;" edge="1" parent="1" source="l2MW9axmsA3kfvPfDr8_-244" target="l2MW9axmsA3kfvPfDr8_-227">
          <mxGeometry relative="1" as="geometry" />
        </mxCell>
        <mxCell id="l2MW9axmsA3kfvPfDr8_-247" value="R20" style="pointerEvents=1;verticalLabelPosition=bottom;shadow=0;dashed=0;align=center;html=1;verticalAlign=top;shape=mxgraph.electrical.resistors.resistor_2;rotation=-90;" vertex="1" parent="1">
          <mxGeometry x="139.0049999999999" y="954.9950000000002" width="40" height="11.43" as="geometry" />
        </mxCell>
        <mxCell id="l2MW9axmsA3kfvPfDr8_-248" value="" style="endArrow=none;html=1;rounded=0;" edge="1" parent="1">
          <mxGeometry width="50" height="50" relative="1" as="geometry">
            <mxPoint x="144" y="981.33" as="sourcePoint" />
            <mxPoint x="174" y="981.33" as="targetPoint" />
          </mxGeometry>
        </mxCell>
        <mxCell id="l2MW9axmsA3kfvPfDr8_-249" value="-12V" style="edgeLabel;html=1;align=center;verticalAlign=middle;resizable=0;points=[];" vertex="1" connectable="0" parent="l2MW9axmsA3kfvPfDr8_-248">
          <mxGeometry x="-0.1556" y="3" relative="1" as="geometry">
            <mxPoint x="2" y="13" as="offset" />
          </mxGeometry>
        </mxCell>
        <mxCell id="l2MW9axmsA3kfvPfDr8_-250" value="" style="ellipse;whiteSpace=wrap;html=1;aspect=fixed;fillColor=#000000;" vertex="1" parent="1">
          <mxGeometry x="156" y="937" width="5" height="5" as="geometry" />
        </mxCell>
        <mxCell id="l2MW9axmsA3kfvPfDr8_-252" value="B" style="edgeLabel;html=1;align=center;verticalAlign=middle;resizable=0;points=[];" vertex="1" connectable="0" parent="1">
          <mxGeometry x="440.25" y="942" as="geometry">
            <mxPoint x="2" y="-10" as="offset" />
          </mxGeometry>
        </mxCell>
      </root>
    </mxGraphModel>
  </diagram>
</mxfile>
